<?xml version="1.0" standalone="no"?>
<!DOCTYPE svg PUBLIC "-//W3C//DTD SVG 20010904//EN"
 "http://www.w3.org/TR/2001/REC-SVG-20010904/DTD/svg10.dtd">
<svg version="1.0" xmlns="http://www.w3.org/2000/svg"
 width="2210.000000pt" height="2947.000000pt" viewBox="0 0 2210.000000 2947.000000"
 preserveAspectRatio="xMidYMid meet">

<g transform="translate(0.000000,2947.000000) scale(0.100000,-0.100000)"
fill="#000000" stroke="none">
<path d="M10503 28153 c-13 -8 -23 -21 -23 -28 0 -16 -27 -28 -35 -15 -3 5 5
18 17 29 30 28 5 28 -59 -1 -26 -12 -54 -20 -61 -19 -8 1 -20 -3 -27 -9 -8 -7
-19 -9 -24 -5 -6 3 -22 -1 -35 -10 -14 -9 -29 -14 -34 -11 -14 8 -67 -21 -101
-54 -20 -20 -35 -27 -50 -23 -11 3 -27 1 -34 -4 -6 -6 -20 -13 -31 -17 -15 -5
-17 -2 -13 14 6 25 -7 34 -31 21 -11 -6 -33 -6 -58 -1 -24 6 -43 5 -48 0 -6
-6 -23 -10 -38 -10 -21 0 -28 -5 -28 -19 0 -28 -20 -37 -27 -12 -6 25 -7 25
-38 5 -20 -13 -25 -25 -25 -55 0 -45 -25 -55 -40 -15 -13 36 -22 37 -76 11
-27 -14 -55 -25 -62 -25 -7 0 -36 -12 -65 -27 -39 -20 -68 -28 -117 -29 -88
-3 -134 -15 -205 -54 -133 -73 -173 -90 -275 -115 -30 -7 -56 -18 -58 -24 -2
-6 -15 -11 -29 -11 -13 0 -55 -13 -93 -30 -38 -16 -73 -30 -78 -30 -36 0 -205
-112 -254 -169 -33 -36 -33 -38 -12 -58 8 -9 13 -21 10 -29 -3 -7 0 -15 7 -17
17 -6 -22 -36 -48 -37 -11 0 -42 -24 -70 -52 -27 -29 -59 -60 -70 -69 -11 -8
-60 -58 -108 -110 -49 -52 -104 -106 -123 -121 -40 -30 -208 -193 -242 -235
-13 -15 -60 -68 -106 -118 -124 -133 -179 -203 -221 -282 -6 -11 -26 -36 -44
-55 -50 -50 -150 -176 -206 -258 -27 -40 -66 -91 -86 -114 -20 -23 -51 -67
-69 -98 -17 -32 -35 -58 -40 -58 -4 0 -20 -19 -36 -42 -16 -24 -35 -47 -41
-51 -7 -4 -13 -13 -13 -20 0 -7 -30 -46 -66 -87 -36 -41 -74 -93 -86 -114 -11
-22 -27 -46 -34 -54 -8 -8 -24 -32 -35 -54 -11 -21 -26 -41 -34 -44 -7 -3 -24
-29 -38 -57 -14 -29 -41 -77 -61 -107 -20 -30 -36 -59 -36 -65 0 -6 -21 -51
-46 -99 -25 -48 -49 -108 -54 -134 -5 -26 -16 -76 -25 -112 -9 -36 -21 -105
-26 -155 -5 -49 -14 -126 -20 -170 -17 -119 -12 -739 6 -889 8 -66 15 -142 15
-168 0 -26 4 -50 10 -53 5 -3 8 -32 6 -63 -4 -65 7 -188 36 -417 20 -160 44
-264 78 -340 40 -87 70 -243 90 -460 14 -160 21 -178 118 -301 23 -29 42 -61
42 -69 0 -8 5 -15 11 -15 5 0 7 -5 4 -10 -3 -6 2 -13 12 -17 28 -10 40 -31 68
-117 17 -51 24 -87 20 -105 -6 -22 -8 -24 -18 -10 -7 9 -16 14 -22 13 -5 -2
-21 14 -35 36 -13 22 -27 40 -31 40 -3 0 -23 16 -43 35 -38 35 -60 43 -71 25
-7 -11 53 -100 67 -100 4 0 8 -5 8 -10 0 -16 69 -82 79 -75 5 3 12 -3 16 -14
3 -10 14 -21 25 -24 13 -3 21 -18 26 -53 8 -51 11 -186 6 -289 -4 -90 9 -295
19 -295 5 0 9 -7 9 -15 0 -8 7 -15 15 -15 9 0 14 -10 14 -27 1 -63 8 -139 15
-162 6 -18 10 -21 17 -10 7 9 7 5 3 -13 -4 -20 -2 -28 7 -28 20 -1 69 -46 69
-65 0 -9 12 -18 30 -21 30 -7 38 -18 20 -29 -10 -6 -4 -15 34 -45 17 -13 18
-11 11 45 -3 33 -15 103 -25 155 -34 175 -51 392 -44 555 3 83 6 184 5 225 0
41 6 100 14 130 8 30 12 65 9 77 -3 11 1 34 10 51 18 35 21 72 6 72 -7 0 -8 6
-1 17 6 12 5 20 -5 28 -13 9 -13 18 -4 55 7 25 12 56 11 70 0 14 7 46 16 73
12 34 14 50 6 58 -8 8 -8 21 -2 43 12 38 18 93 24 206 3 47 9 103 14 125 16
66 32 175 27 184 -3 4 -1 23 5 42 6 19 12 52 14 74 8 79 22 135 47 183 22 43
24 50 10 59 -14 8 -11 19 22 86 22 42 45 82 53 88 8 7 11 20 7 32 -4 11 -2 17
4 13 5 -3 17 20 26 52 26 85 36 108 55 129 25 26 44 63 33 63 -5 0 -12 14 -16
30 -3 17 -11 29 -18 28 -17 -4 -11 62 8 83 8 8 14 22 14 30 0 8 4 19 9 24 6 6
4 17 -5 29 -7 11 -17 17 -20 13 -4 -4 -1 -13 6 -22 11 -13 9 -15 -11 -13 -16
2 -27 -4 -34 -19 -11 -25 -35 -31 -35 -9 0 7 9 25 20 39 16 20 20 38 18 91 -1
37 -7 71 -13 76 -7 6 -10 21 -7 35 3 20 1 24 -12 19 -22 -9 -20 8 5 35 l22 23
-22 -7 c-19 -6 -21 -3 -21 42 0 27 5 54 12 61 9 9 9 15 0 24 -9 9 -12 8 -12
-6 0 -9 -4 -15 -9 -11 -11 6 7 67 30 103 11 18 10 24 -4 40 -18 20 -23 62 -7
62 6 0 10 8 10 18 0 10 7 27 15 39 15 21 14 23 -15 38 -35 18 -37 26 -11 49
10 10 22 38 26 64 7 44 20 80 34 92 11 9 41 72 41 86 0 8 5 14 10 14 6 0 10 5
10 10 0 6 -11 10 -25 10 -14 0 -25 4 -25 8 0 16 47 53 61 47 11 -4 14 7 14 50
0 31 5 59 11 63 6 4 19 24 29 45 9 20 20 37 24 37 4 0 25 16 47 35 21 19 42
35 47 35 4 0 7 5 7 11 0 6 10 25 22 41 12 17 21 44 21 59 0 21 5 29 18 29 9 0
19 6 22 13 3 9 7 9 20 -2 15 -12 17 -9 17 36 0 37 5 55 20 68 11 10 20 22 20
26 0 5 12 25 26 46 26 37 26 38 19 8 -20 -84 -18 -113 9 -140 31 -31 32 -35 7
-35 -10 0 -26 -11 -35 -25 -15 -23 -15 -25 3 -34 10 -6 21 -8 24 -5 3 3 11 6
19 8 23 3 44 20 68 54 30 40 40 41 40 2 0 -34 15 -40 25 -10 12 39 55 66 55
35 0 -14 -33 -78 -52 -103 -16 -19 -1 -27 17 -8 9 9 25 21 36 26 10 6 19 16
19 23 0 7 13 21 30 30 16 10 35 28 41 40 7 12 15 24 18 27 3 3 12 16 19 30 18
34 92 115 92 101 0 -18 40 -13 47 7 4 9 18 26 32 37 14 11 34 29 46 40 25 24
104 33 116 13 6 -9 16 -3 38 20 36 37 41 39 41 12 0 -11 5 -20 10 -20 6 0 10
4 10 8 0 4 15 15 33 23 37 17 99 8 94 -14 -1 -8 12 -11 43 -10 48 3 51 3 152
0 43 -1 68 2 68 9 0 5 24 16 53 23 28 7 62 19 74 27 12 8 44 14 70 14 36 0 44
3 35 12 -19 19 -14 28 13 28 16 0 25 -6 25 -15 0 -8 9 -15 20 -15 11 0 20 -4
20 -10 0 -5 -12 -10 -27 -10 -54 0 -57 -16 -6 -29 26 -7 62 -16 79 -21 17 -6
41 -10 55 -11 l24 0 -22 -16 c-34 -23 -28 -32 15 -21 75 19 82 20 82 12 0 -9
-31 -25 -87 -45 -18 -6 -33 -16 -33 -21 0 -6 13 -8 33 -3 17 3 46 7 62 9 17 1
40 7 52 14 12 7 38 12 58 12 25 0 51 10 78 29 23 17 59 33 80 37 20 3 40 10
43 15 3 5 19 9 36 9 17 0 45 9 62 19 17 11 55 23 84 27 43 5 52 4 52 -9 0 -9
-4 -19 -10 -22 -12 -7 -13 -25 -2 -25 5 0 14 11 21 24 8 13 26 26 41 29 16 4
30 14 33 26 3 14 13 21 30 21 29 0 44 -17 29 -32 -13 -13 -4 -38 12 -38 7 0
25 13 40 29 16 16 38 32 51 35 15 4 24 16 28 35 5 23 14 32 39 39 18 6 40 13
48 16 26 10 44 -8 31 -33 -8 -14 -8 -21 -1 -21 5 0 10 4 10 10 0 5 18 14 40
20 22 6 40 15 40 20 0 6 10 10 23 10 13 0 27 4 32 9 6 5 21 12 35 15 21 6 22
5 8 -4 -21 -13 -24 -31 -5 -26 41 13 67 15 67 5 0 -22 -30 -39 -74 -42 -24 -1
-48 -6 -52 -10 -4 -4 -21 -7 -38 -7 -24 0 -27 -3 -18 -12 8 -8 36 -11 77 -10
61 3 85 -8 49 -22 -9 -3 -14 -13 -11 -20 3 -8 1 -16 -5 -18 -6 -2 -9 -10 -6
-18 3 -9 17 -2 46 24 47 43 52 39 21 -18 -11 -21 -18 -40 -15 -43 4 -5 42 34
71 73 11 16 16 17 27 5 10 -11 10 -14 1 -18 -19 -7 -16 -24 4 -21 26 4 30 -32
4 -39 -11 -3 -23 -14 -27 -25 -8 -26 0 -32 19 -13 11 10 18 12 23 4 4 -7 15
-2 31 15 40 43 71 60 87 47 10 -8 23 -7 54 3 22 8 61 18 86 21 25 4 46 12 46
17 0 5 5 6 10 3 6 -4 8 -10 5 -15 -13 -21 17 -19 35 2 23 28 42 15 29 -19 -6
-16 -17 -23 -34 -23 -27 0 -32 -9 -13 -28 9 -9 9 -12 1 -12 -7 0 -12 -12 -12
-27 -1 -16 -2 -39 -3 -53 -2 -17 2 -25 12 -25 11 0 16 14 18 53 2 37 7 52 18
52 7 0 14 -4 14 -9 0 -15 94 39 117 67 l22 27 1 -31 c0 -16 -5 -35 -12 -42 -9
-9 -9 -12 0 -12 7 0 12 -9 12 -20 0 -44 21 -19 44 53 8 26 45 21 58 -8 6 -14
15 -25 20 -25 5 0 5 -8 0 -17 -5 -10 -12 -35 -16 -55 -7 -36 -6 -37 31 -44 25
-5 38 -3 41 5 2 6 9 17 16 24 6 6 16 24 23 38 14 32 63 38 63 8 0 -10 5 -21
10 -24 12 -7 49 33 50 53 1 51 40 -48 40 -103 0 -8 8 -15 18 -15 13 0 25 14
37 43 l19 42 3 -37 c3 -21 8 -38 14 -38 12 0 12 67 -1 75 -14 8 -13 45 1 45 7
0 9 11 6 28 -12 62 -12 66 7 70 14 3 17 0 13 -12 -8 -20 -3 -20 17 0 14 14 15
12 9 -18 -3 -18 -11 -39 -16 -46 -8 -10 -7 -16 2 -22 9 -5 10 -10 2 -14 -6 -4
-11 -15 -10 -24 0 -14 3 -13 16 6 8 12 19 22 23 22 12 0 3 -115 -10 -139 -5
-11 -10 -33 -10 -48 0 -16 -5 -34 -12 -41 -13 -13 -5 -27 11 -18 11 7 41 64
41 79 0 6 15 23 33 38 30 26 31 28 10 29 -27 0 -28 4 -6 40 9 16 27 30 39 33
20 3 25 -1 30 -30 4 -23 2 -39 -8 -51 -25 -30 -38 -68 -26 -80 11 -11 -17 -66
-55 -109 -11 -13 -16 -23 -11 -23 15 0 68 42 98 77 15 18 45 40 66 49 22 10
40 24 40 31 0 7 5 13 10 13 6 0 10 -16 10 -36 0 -19 7 -42 15 -50 13 -14 15
-14 15 1 0 9 10 29 22 46 18 24 20 32 9 38 -10 7 -9 9 3 14 9 4 23 4 31 1 20
-8 19 16 -1 31 -15 11 -15 14 1 38 10 16 26 27 40 27 36 0 85 21 85 36 0 8 7
14 15 14 8 0 15 6 15 13 0 6 6 3 12 -8 6 -11 12 -21 13 -23 1 -1 10 0 19 4 23
9 20 23 -4 17 -15 -4 -20 0 -20 16 0 16 6 21 25 21 14 0 33 8 44 19 16 16 24
17 55 7 45 -14 46 -29 4 -41 -18 -6 -32 -14 -31 -20 3 -12 63 -26 63 -14 0 5
5 9 10 9 21 0 9 -19 -25 -39 -41 -24 -49 -47 -10 -29 14 6 25 14 25 18 0 4 18
10 40 14 22 3 40 11 40 16 0 5 7 7 16 3 8 -3 13 -12 9 -20 -4 -12 0 -14 15 -9
11 3 28 8 38 11 9 3 23 1 31 -4 12 -8 12 -12 2 -25 -17 -21 4 -22 25 -2 18 19
18 26 -1 26 -9 0 -15 9 -15 24 0 19 4 23 19 19 13 -3 23 2 30 16 16 29 29 26
33 -6 2 -21 9 -29 27 -31 13 -2 28 1 34 7 6 6 21 11 33 11 13 0 26 5 29 10 8
13 55 13 55 1 0 -5 -6 -11 -12 -14 -9 -3 -6 -7 6 -13 13 -5 21 -3 24 4 2 7 14
12 27 12 13 0 27 5 30 10 9 14 51 13 75 -2 23 -15 37 -4 21 16 -8 10 -9 16 -1
21 5 3 10 -1 10 -9 0 -17 63 -38 85 -29 17 6 74 -36 74 -54 1 -8 17 -13 44
-13 23 0 49 -5 57 -10 13 -8 12 -10 -4 -10 -16 0 -15 -3 8 -21 14 -11 26 -29
26 -40 0 -14 7 -19 29 -19 16 0 31 -6 34 -15 7 -18 81 -65 102 -65 15 0 64
-47 65 -61 0 -15 88 -99 103 -99 11 0 17 -8 17 -25 0 -15 6 -25 14 -25 15 0
36 -49 36 -86 0 -15 6 -24 15 -24 8 0 15 -7 15 -15 0 -8 7 -15 15 -15 21 0 19
-38 -2 -43 -14 -4 -13 -5 4 -6 17 -1 23 -9 28 -41 4 -22 11 -40 16 -40 19 0
49 -37 49 -61 -1 -31 11 -93 19 -99 13 -10 31 -50 31 -68 0 -9 9 -42 20 -72
22 -59 20 -80 -6 -80 -14 0 -15 -6 -9 -32 4 -18 8 -42 10 -53 1 -11 9 -35 19
-53 20 -38 14 -56 -9 -26 -12 16 -16 17 -24 4 -7 -9 -6 -17 1 -21 12 -7 1 -50
-16 -62 -8 -6 -8 -10 2 -14 6 -2 12 -10 12 -17 0 -8 9 -24 20 -38 12 -16 16
-28 9 -35 -15 -15 -29 -73 -17 -73 19 0 1 -25 -23 -30 -24 -6 -42 -50 -20 -50
6 0 11 -7 11 -16 0 -8 5 -12 10 -9 6 3 10 -3 10 -14 0 -11 5 -23 10 -26 6 -3
10 -13 10 -21 0 -9 -5 -12 -12 -8 -8 5 -9 -4 -4 -34 5 -36 4 -41 -11 -35 -13
5 -15 3 -8 -13 17 -42 18 -64 1 -64 -9 0 -16 -4 -16 -10 0 -5 6 -10 14 -10 7
0 19 -13 26 -30 7 -16 19 -30 27 -30 8 0 13 -6 10 -12 -2 -7 -14 -13 -26 -12
-11 0 -21 -5 -21 -13 0 -7 5 -13 10 -13 6 0 10 -7 10 -15 0 -8 4 -15 9 -15 5
0 7 -9 4 -20 -3 -11 -1 -26 5 -33 5 -6 13 -33 16 -59 5 -36 12 -48 24 -48 13
0 21 -14 30 -53 14 -60 33 -107 45 -107 4 0 7 -13 7 -28 0 -16 3 -32 8 -36 4
-4 7 -11 8 -14 4 -33 18 -82 23 -82 4 0 13 -16 20 -35 7 -19 16 -35 20 -35 5
0 6 -11 3 -25 -3 -16 2 -33 12 -44 9 -9 20 -37 25 -62 5 -24 21 -73 36 -107
15 -35 24 -70 21 -77 -3 -8 -2 -15 3 -17 13 -5 61 -166 61 -205 0 -21 7 -57
15 -80 16 -47 22 -85 36 -248 5 -66 16 -123 26 -143 14 -27 14 -35 4 -42 -8
-4 -10 -13 -6 -20 4 -6 11 -55 15 -108 5 -53 13 -98 19 -100 6 -2 11 -8 11
-13 0 -4 -7 -6 -15 -3 -13 5 -14 2 -5 -21 6 -15 13 -32 16 -37 11 -18 13 -112
3 -124 -7 -9 -7 -19 1 -34 6 -11 10 -44 10 -73 -1 -29 5 -79 15 -111 9 -35 14
-70 9 -85 -3 -14 -8 -60 -9 -101 -5 -142 -25 -305 -50 -405 -32 -129 -39 -181
-27 -189 12 -7 62 31 62 47 0 6 15 24 34 41 18 17 46 55 61 84 15 28 31 52 35
52 17 0 68 369 54 391 -4 7 -3 9 4 5 14 -9 20 13 28 111 5 60 10 80 19 77 8
-4 16 6 20 25 4 18 13 31 22 31 11 0 13 5 8 18 -5 9 -10 36 -11 58 -2 23 -8
53 -13 66 -17 45 24 121 100 184 19 16 129 134 129 139 0 2 13 16 28 32 16 15
33 37 39 48 10 17 21 20 73 18 49 -2 66 1 83 17 28 26 37 25 37 -5 0 -18 4
-23 15 -19 10 4 15 20 15 44 0 35 3 39 28 42 15 2 42 1 60 -1 30 -3 32 -6 32
-41 0 -56 8 -69 51 -80 24 -7 39 -17 39 -26 0 -28 23 -9 37 32 11 30 12 46 4
70 -8 23 -8 42 3 77 8 26 10 47 6 47 -4 0 -8 16 -7 36 1 19 -4 38 -9 42 -6 4
-14 20 -18 35 -4 15 -10 26 -15 23 -4 -3 -17 1 -27 9 -10 8 -27 15 -36 15 -10
0 -18 5 -18 10 0 6 -22 10 -50 10 -48 0 -60 -5 -156 -64 -16 -11 -55 -50 -85
-89 -50 -64 -126 -144 -258 -272 -39 -37 -54 -46 -63 -37 -8 8 -8 15 0 24 6 8
12 33 13 56 3 40 5 42 33 42 17 0 26 4 20 8 -28 18 -26 162 2 162 8 0 14 7 14
15 0 17 40 96 56 110 6 6 23 26 38 47 15 20 38 39 51 42 14 4 25 11 25 17 0
11 35 63 63 91 12 13 17 34 17 76 0 49 4 62 29 91 50 58 62 114 87 401 3 36
10 70 16 77 11 14 1 36 -13 28 -5 -4 -9 3 -9 14 0 12 6 21 14 21 21 0 22 11
26 180 9 459 5 726 -13 845 -9 66 -22 152 -27 190 -6 39 -18 102 -26 140 -22
105 -34 252 -33 425 1 156 -6 226 -22 236 -5 3 -9 21 -9 40 0 20 -15 63 -35
102 -19 37 -44 102 -54 144 -11 42 -31 101 -44 130 -14 29 -28 64 -32 78 -15
52 -60 137 -107 201 -26 37 -48 71 -48 77 0 6 -15 23 -32 38 -18 15 -88 90
-156 168 -68 78 -142 157 -165 176 -41 34 -139 126 -326 305 -51 50 -112 115
-134 145 -22 30 -46 58 -53 62 -6 4 -21 26 -32 47 -44 83 -205 250 -292 301
-36 21 -74 48 -85 60 -11 12 -47 41 -80 63 -33 22 -62 43 -65 47 -3 3 -42 34
-88 69 -45 34 -89 73 -98 87 -9 13 -21 24 -26 24 -6 0 -26 14 -45 30 -18 17
-40 30 -47 30 -8 0 -16 7 -20 15 -3 8 -12 15 -21 15 -8 0 -15 5 -15 11 0 6 7
8 15 5 8 -3 22 -9 30 -12 34 -14 11 23 -50 81 -43 40 -65 69 -65 84 0 29 -53
94 -96 117 -19 10 -34 21 -34 25 0 7 -104 59 -119 59 -6 0 -18 18 -27 40 -17
43 -37 51 -53 23 -6 -12 -22 -18 -51 -18 -40 0 -41 1 -36 29 7 32 -8 56 -34
56 -10 0 -23 7 -30 15 -7 8 -20 15 -29 15 -9 0 -43 13 -76 29 -181 89 -247
108 -311 87 -16 -5 -22 0 -31 21 -10 26 -11 26 -12 6 -1 -14 -7 -23 -17 -23
-11 0 -15 6 -11 20 6 24 -10 37 -26 21 -8 -8 -15 -7 -27 4 -9 8 -27 16 -41 17
-13 2 -30 9 -37 15 -11 10 -20 10 -47 -1 -27 -11 -33 -12 -29 -2 8 21 -88 47
-225 60 -115 11 -124 11 -135 -6 -14 -24 -36 -23 -36 1 0 17 -6 19 -57 15 -93
-7 -122 -6 -138 6 -5 5 -41 11 -80 15 -89 9 -163 33 -178 56 -19 30 -33 22
-58 -31 -22 -45 -44 -68 -57 -56 -2 3 2 16 10 28 9 13 19 38 22 56 6 27 5 31
-8 26 -9 -3 -16 -10 -16 -15 0 -5 -9 -9 -20 -9 -11 0 -20 5 -20 10 0 6 -5 10
-11 10 -6 0 -8 -8 -4 -19 4 -12 -2 -23 -17 -33 -36 -23 -68 -29 -68 -12 0 8 5
14 10 14 6 0 10 5 10 12 0 6 10 22 22 35 23 25 21 37 -5 27 -9 -3 -20 -19 -26
-35 -5 -16 -14 -29 -18 -29 -5 0 -17 -13 -26 -30 -19 -31 -47 -41 -47 -15 0 8
9 33 21 55 25 47 19 75 -14 67 -12 -3 -31 1 -41 9 -26 18 -95 17 -123 -3z
m-143 -73 c0 -5 -2 -10 -4 -10 -3 0 -8 5 -11 10 -3 6 -1 10 4 10 6 0 11 -4 11
-10z m-55 -10 c3 -5 1 -10 -4 -10 -6 0 -11 5 -11 10 0 6 2 10 4 10 3 0 8 -4
11 -10z m172 -22 c-3 -8 -6 -5 -6 6 -1 11 2 17 5 13 3 -3 4 -12 1 -19z m-316
-95 c-9 -15 -10 -13 -11 13 0 17 3 34 8 38 11 12 14 -32 3 -51z m159 15 c0
-18 -2 -20 -9 -8 -6 8 -7 18 -5 22 9 14 14 9 14 -14z m-570 2 c0 -5 -4 -10
-10 -10 -5 0 -10 5 -10 10 0 6 5 10 10 10 6 0 10 -4 10 -10z m2065 -29 c3 -6
-3 -15 -14 -21 -21 -11 -37 2 -26 20 8 13 32 13 40 1z m1126 -558 c6 -17 6
-30 0 -36 -15 -15 -38 9 -38 38 0 33 25 32 38 -2z m59 -38 c0 -8 -4 -15 -10
-15 -5 0 -10 7 -10 15 0 8 5 15 10 15 6 0 10 -7 10 -15z m-2337 -1911 c-24
-18 -33 -17 -33 2 0 8 4 13 9 9 5 -3 12 -1 16 5 4 6 11 8 16 4 6 -3 3 -12 -8
-20z m317 -48 c0 -3 -4 -8 -10 -11 -5 -3 -10 -1 -10 4 0 6 5 11 10 11 6 0 10
-2 10 -4z m70 -36 c0 -10 -7 -25 -16 -32 -8 -7 -24 -21 -35 -31 -28 -26 -68
-39 -93 -30 -11 4 -27 6 -34 4 -7 -1 -15 5 -18 14 -5 12 -14 15 -33 10 l-26
-7 24 21 c18 16 27 18 37 10 10 -8 20 -4 41 15 31 29 63 34 63 11 0 -8 -5 -15
-12 -15 -6 0 -9 -3 -6 -6 4 -3 25 8 49 25 49 36 59 38 59 11z m84 -75 c-4 -8
-8 -15 -10 -15 -2 0 -4 7 -4 15 0 8 4 15 10 15 5 0 7 -7 4 -15z m-1706 -26
c-18 -12 -68 -11 -68 0 0 11 37 18 63 12 15 -3 16 -6 5 -12z m1435 -2 c3 -9
17 -12 39 -10 l33 4 -28 -16 c-21 -12 -32 -13 -48 -4 -11 6 -33 8 -47 5 l-27
-7 25 21 c29 23 46 25 53 7z m-1504 -8 c37 -12 59 -20 101 -36 25 -10 25 -10
-9 -18 -27 -6 -37 -4 -48 10 -9 14 -25 18 -58 17 -32 -2 -45 2 -45 11 0 29 10
31 59 16z m1421 1 c0 -5 -5 -10 -11 -10 -5 0 -7 5 -4 10 3 6 8 10 11 10 2 0 4
-4 4 -10z m400 -20 c0 -5 -4 -10 -10 -10 -5 0 -10 5 -10 10 0 6 5 10 10 10 6
0 10 -4 10 -10z m1700 0 c0 -5 -2 -10 -4 -10 -3 0 -8 5 -11 10 -3 6 -1 10 4
10 6 0 11 -4 11 -10z m-4466 -37 c-5 -5 -12 -12 -16 -18 -4 -6 -8 -2 -8 8 0 9
7 17 17 17 9 0 12 -3 7 -7z m3396 -23 c0 -5 -4 -10 -10 -10 -5 0 -10 5 -10 10
0 6 5 10 10 10 6 0 10 -4 10 -10z m-2270 -14 c0 -3 -4 -8 -10 -11 -5 -3 -10
-1 -10 4 0 6 5 11 10 11 6 0 10 -2 10 -4z m-1360 -70 c0 -2 -7 -7 -16 -10 -8
-3 -12 -2 -9 4 6 10 25 14 25 6z m-40 -67 c0 -15 -50 -99 -60 -99 -4 0 -7 -7
-6 -16 0 -9 -5 -19 -13 -22 -19 -6 -7 55 21 108 20 37 58 56 58 29z m-140 -58
c0 -6 -4 -13 -10 -16 -5 -3 -10 -17 -10 -31 0 -15 -6 -24 -15 -24 -16 0 -20
35 -9 64 7 17 44 22 44 7z m-632 -1816 c-3 -3 -9 2 -12 12 -6 14 -5 15 5 6 7
-7 10 -15 7 -18z m-778 -1351 c0 -8 -5 -12 -10 -9 -6 4 -8 11 -5 16 9 14 15
11 15 -7z m8770 -119 c0 -8 -7 -15 -15 -15 -16 0 -20 12 -8 23 11 12 23 8 23
-8z m104 -91 c9 -22 8 -24 -9 -24 -8 0 -15 9 -15 20 0 24 15 27 24 4z m-663
-211 c-12 -20 -14 -14 -5 12 4 9 9 14 11 11 3 -2 0 -13 -6 -23z"/>
<path d="M10890 25290 c0 -5 11 -10 24 -10 14 0 28 5 31 10 4 6 -7 10 -24 10
-17 0 -31 -4 -31 -10z"/>
<path d="M10345 25290 c-3 -5 1 -10 9 -10 8 0 18 5 21 10 3 6 -1 10 -9 10 -8
0 -18 -4 -21 -10z"/>
<path d="M10535 25260 c-3 -5 1 -10 9 -10 9 0 16 5 16 10 0 6 -4 10 -9 10 -6
0 -13 -4 -16 -10z"/>
<path d="M10110 25190 c0 -5 5 -10 10 -10 6 0 10 5 10 10 0 6 -4 10 -10 10 -5
0 -10 -4 -10 -10z"/>
<path d="M9220 25126 c0 -2 7 -6 15 -10 8 -3 15 -1 15 4 0 6 -7 10 -15 10 -8
0 -15 -2 -15 -4z"/>
<path d="M9293 25093 c9 -2 23 -2 30 0 6 3 -1 5 -18 5 -16 0 -22 -2 -12 -5z"/>
<path d="M9180 25071 c-36 -4 -50 -9 -42 -15 8 -4 43 -5 79 -1 45 5 61 10 52
16 -8 5 -18 8 -24 7 -5 -1 -35 -4 -65 -7z"/>
<path d="M11031 25054 c0 -11 3 -14 6 -6 3 7 2 16 -1 19 -3 4 -6 -2 -5 -13z"/>
<path d="M13860 24420 c0 -5 5 -10 10 -10 6 0 10 5 10 10 0 6 -4 10 -10 10 -5
0 -10 -4 -10 -10z"/>
<path d="M13913 23665 c4 -9 7 -25 7 -36 0 -10 6 -19 14 -19 24 0 23 24 -2 49
-18 16 -23 18 -19 6z"/>
<path d="M7355 23559 c-9 -14 -2 -20 14 -10 8 6 9 11 3 15 -6 3 -14 1 -17 -5z"/>
<path d="M13115 22960 c-3 -5 1 -10 9 -10 9 0 16 5 16 10 0 6 -4 10 -9 10 -6
0 -13 -4 -16 -10z"/>
<path d="M13229 22947 c-14 -7 -32 -17 -40 -23 -11 -9 -30 -9 -78 1 -41 9 -72
10 -87 5 -15 -6 -34 -6 -50 0 -39 15 -67 13 -60 -5 7 -19 -31 -20 -103 -3 -45
10 -53 9 -70 -6 -16 -14 -30 -16 -74 -11 -36 5 -57 3 -61 -4 -4 -6 -16 -11
-27 -11 -14 0 -18 4 -12 13 4 7 -3 6 -17 -4 -14 -9 -45 -19 -70 -23 -51 -8
-52 -8 -102 0 -23 4 -38 2 -38 -4 0 -17 -58 -32 -85 -22 -17 6 -27 5 -35 -5
-8 -9 -30 -14 -63 -13 -29 1 -70 -2 -92 -6 -46 -9 -145 -65 -145 -82 0 -11
-91 -54 -114 -54 -14 0 -66 -61 -66 -77 0 -7 5 -13 10 -13 6 0 10 5 10 11 0 7
8 18 18 25 19 15 52 19 52 6 0 -14 -22 -31 -35 -26 -6 3 -18 -2 -25 -11 -14
-17 -60 -21 -60 -4 0 6 -8 3 -17 -7 -13 -13 -14 -19 -5 -22 14 -4 16 -48 2
-57 -13 -8 -13 -25 0 -25 6 0 19 14 30 32 l19 32 10 -25 10 -24 0 26 c1 26 28
59 49 59 17 0 -48 -89 -70 -96 -10 -3 -18 -10 -18 -16 0 -6 -11 -8 -25 -6 -17
4 -25 1 -25 -8 0 -8 9 -14 20 -14 24 0 26 -13 5 -30 -8 -7 -15 -9 -15 -5 0 4
-7 2 -15 -5 -26 -22 -17 -56 26 -100 37 -37 45 -41 82 -38 l42 3 -27 14 c-39
20 -35 32 10 29 20 -1 55 -1 77 0 36 2 42 6 53 35 12 29 14 31 26 15 18 -24
24 -23 48 7 21 27 48 33 48 12 0 -8 -3 -17 -7 -21 -4 -4 -8 -15 -8 -24 0 -10
-7 -16 -17 -16 -10 1 -18 -2 -18 -7 0 -5 -7 -9 -16 -9 -9 0 -18 -9 -21 -20 -3
-11 -13 -20 -23 -20 -10 0 -20 -3 -23 -7 -2 -5 -2 -2 -1 5 6 21 -64 14 -96
-10 -16 -12 -44 -22 -62 -24 -18 -1 -43 -5 -55 -9 -20 -6 -23 -4 -23 19 0 33
-16 34 -24 1 -4 -15 -16 -27 -31 -31 -14 -3 -25 -11 -24 -18 3 -26 -2 -35 -21
-31 -11 2 -20 0 -20 -4 0 -5 -9 -11 -20 -14 -11 -3 -20 -2 -20 3 0 4 -10 10
-21 13 -15 4 -20 11 -15 22 5 13 2 15 -16 9 -50 -15 -62 -53 -27 -78 20 -13
20 -16 6 -30 -9 -9 -19 -16 -24 -16 -4 0 -26 -11 -48 -25 -33 -21 -35 -24 -14
-19 20 4 33 -1 53 -21 23 -23 27 -36 29 -97 2 -57 -1 -71 -15 -79 -10 -6 -18
-17 -18 -24 0 -8 -6 -15 -14 -15 -8 0 -17 -6 -19 -12 -4 -10 -8 -9 -16 2 -8
11 -12 5 -17 -28 -4 -23 -10 -42 -15 -42 -12 0 -11 -86 0 -127 7 -23 6 -33 -2
-36 -20 -6 19 -75 55 -97 40 -24 69 -25 110 -4 21 11 27 18 18 24 -8 5 -9 16
-5 30 6 18 9 20 17 9 6 -10 7 -4 3 17 -4 22 0 42 16 68 11 20 25 36 29 36 4 0
10 9 13 20 4 16 14 20 51 20 34 0 46 4 46 15 0 11 -12 15 -42 16 -24 1 -33 4
-20 6 12 2 22 11 22 18 0 8 8 20 18 27 11 7 21 20 25 28 3 8 6 -4 6 -26 1 -43
16 -59 46 -48 10 4 15 21 16 48 0 22 3 36 5 30 6 -15 44 -6 44 10 0 16 42 53
67 59 15 4 14 5 -4 6 -34 2 -28 17 15 33 l37 14 -37 13 c-20 6 -39 19 -42 27
-3 8 -1 12 4 9 5 -3 12 7 15 22 8 39 18 55 41 67 10 6 21 14 24 17 3 3 13 8
23 12 9 3 17 16 17 27 0 13 7 20 19 20 11 0 23 5 26 11 4 5 18 14 31 19 25 10
33 40 12 40 -30 1 37 40 68 40 44 0 88 42 80 76 -3 13 -9 35 -12 49 -5 20 -2
25 19 30 15 4 27 15 29 26 3 19 5 19 23 5 20 -16 20 -16 1 -31 -11 -8 -17 -18
-14 -21 8 -8 78 18 78 28 0 5 9 4 19 -2 13 -7 22 -7 26 0 14 23 42 29 70 14
32 -16 36 -15 153 37 63 28 95 24 55 -7 -16 -11 -13 -12 17 -4 19 6 42 19 50
29 23 29 75 51 119 51 22 0 43 5 46 10 4 6 10 8 15 5 5 -3 18 -1 29 5 16 8 22
6 31 -10 6 -11 16 -20 23 -20 9 0 8 3 -1 9 -18 11 41 20 86 14 l33 -5 -58 -26
c-70 -30 -128 -39 -148 -22 -17 14 -141 5 -151 -11 -12 -21 9 -22 70 -6 77 20
76 20 76 5 0 -16 99 -15 129 1 11 6 35 11 53 11 19 0 39 5 46 12 9 9 12 9 12
0 0 -7 -4 -12 -10 -12 -5 0 -10 -5 -10 -11 0 -6 9 -8 21 -4 12 4 36 9 53 11
17 2 41 6 54 10 26 8 28 -2 5 -28 -15 -17 -15 -18 5 -18 11 0 23 4 27 10 3 5
12 7 20 3 8 -3 15 -1 15 5 0 6 -6 12 -12 15 -7 3 0 10 17 17 20 8 25 14 16 18
-9 3 3 12 30 23 49 20 89 24 89 9 0 -5 -9 -10 -19 -10 -22 0 -36 -16 -22 -24
5 -4 12 -2 16 4 3 5 15 10 25 10 16 0 18 -5 13 -37 -7 -45 -7 -45 -58 -62 -22
-7 -50 -22 -62 -33 -12 -12 -29 -18 -37 -15 -9 4 -16 2 -16 -3 0 -33 105 -7
214 52 l39 21 -40 -41 c-21 -22 -49 -42 -63 -44 -20 -3 -21 -5 -8 -16 13 -10
19 -10 31 3 9 8 22 15 31 15 8 0 21 7 30 15 8 9 32 23 51 31 l37 15 -19 -26
c-10 -14 -28 -28 -41 -31 -18 -5 -22 -12 -20 -33 5 -39 28 -36 78 10 24 23 51
43 60 43 26 3 104 29 119 40 7 6 23 15 35 21 11 6 21 17 21 25 0 8 7 20 15 27
12 10 13 15 2 32 -10 18 -10 21 3 21 10 0 15 7 13 18 -2 13 5 17 35 18 20 1
40 3 42 6 3 3 -8 18 -25 34 -16 16 -30 35 -30 42 0 6 -11 12 -24 12 -13 0 -26
3 -28 8 -5 11 -97 72 -111 72 -7 0 -21 7 -31 15 -11 8 -27 15 -36 15 -9 0 -27
11 -40 25 -13 14 -29 24 -34 21 -6 -2 -20 4 -31 14 -31 27 -111 53 -139 46
-19 -5 -28 -1 -35 12 -6 11 -31 25 -56 32 -25 7 -45 17 -45 21 0 12 -19 10
-51 -4z m61 -22 c16 -19 0 -19 -26 0 -16 12 -16 14 -3 15 9 0 22 -7 29 -15z
m-60 -21 c0 -2 -7 -4 -15 -4 -8 0 -15 4 -15 10 0 5 7 7 15 4 8 -4 15 -8 15
-10z m-833 -50 c-3 -3 -12 -4 -19 -1 -8 3 -5 6 6 6 11 1 17 -2 13 -5z m-272
-44 c-3 -5 -10 -10 -16 -10 -5 0 -9 5 -9 10 0 6 7 10 16 10 8 0 12 -4 9 -10z
m1557 -54 c10 -7 15 -15 12 -18 -6 -7 -54 15 -54 25 0 11 23 8 42 -7z m125
-212 c-3 -3 -12 -4 -19 -1 -8 3 -5 6 6 6 11 1 17 -2 13 -5z m-1467 -8 c0 -3
-4 -8 -10 -11 -5 -3 -10 -1 -10 4 0 6 5 11 10 11 6 0 10 -2 10 -4z m-340 -16
c0 -5 -5 -10 -11 -10 -5 0 -7 5 -4 10 3 6 8 10 11 10 2 0 4 -4 4 -10z m200
-55 c-21 -25 -31 -6 -12 23 14 21 17 23 20 9 2 -10 -2 -24 -8 -32z m1380 -3
c-35 -24 -73 -34 -81 -20 -15 23 2 36 40 31 24 -3 41 -1 46 7 4 6 10 9 13 5 3
-3 -5 -13 -18 -23z m-1695 -11 c-3 -12 -13 -21 -21 -21 -18 0 -18 9 3 32 20
22 27 17 18 -11z m690 9 c-3 -5 -13 -6 -21 -3 -12 4 -13 8 -3 14 15 9 32 2 24
-11z m-591 -32 c-9 -32 -14 -35 -27 -17 -7 9 -19 19 -27 22 -9 4 -6 5 7 3 13
-2 26 0 29 5 11 19 25 8 18 -13z m546 12 c0 -5 -9 -10 -21 -10 -11 0 -17 5
-14 10 3 6 13 10 21 10 8 0 14 -4 14 -10z m-430 -7 c-8 -3 -18 -11 -22 -17 -4
-6 -10 -7 -15 -3 -9 10 16 27 37 26 13 -1 13 -1 0 -6z m228 -5 c-17 -10 -48
-10 -48 0 0 5 14 9 30 9 20 0 26 -3 18 -9z m-568 -38 c0 -5 -5 -10 -11 -10 -5
0 -7 5 -4 10 3 6 8 10 11 10 2 0 4 -4 4 -10z m160 -16 c0 -8 -4 -12 -10 -9 -5
3 -10 10 -10 16 0 5 5 9 10 9 6 0 10 -7 10 -16z m200 -9 c11 -13 7 -15 -25
-15 -32 0 -36 2 -25 15 7 8 18 15 25 15 7 0 18 -7 25 -15z m-40 -55 c0 -5 -4
-10 -9 -10 -6 0 -13 5 -16 10 -3 6 1 10 9 10 9 0 16 -4 16 -10z m-60 -30 c0
-5 -5 -10 -11 -10 -5 0 -7 5 -4 10 3 6 8 10 11 10 2 0 4 -4 4 -10z m140 -19
c0 -5 -9 -7 -20 -4 -11 3 -20 7 -20 9 0 2 9 4 20 4 11 0 20 -4 20 -9z m-200
-101 c-20 -13 -40 -13 -40 0 0 6 12 10 28 10 21 0 24 -2 12 -10z m-96 -88 c4
-7 -27 -42 -38 -42 -2 0 1 11 7 25 12 26 22 31 31 17z m-294 -32 c0 -5 -4 -10
-10 -10 -5 0 -10 5 -10 10 0 6 5 10 10 10 6 0 10 -4 10 -10z m50 -20 c0 -5 -4
-10 -10 -10 -5 0 -10 5 -10 10 0 6 5 10 10 10 6 0 10 -4 10 -10z m-126 -85
c-4 -8 -12 -15 -19 -15 -7 0 -15 7 -19 15 -4 11 1 15 19 15 18 0 23 -4 19 -15z
m-39 -135 c3 -5 1 -10 -4 -10 -6 0 -11 5 -11 10 0 6 2 10 4 10 3 0 8 -4 11
-10z"/>
<path d="M8293 22864 c-4 -11 -13 -14 -29 -10 -17 5 -29 0 -41 -14 -10 -11
-23 -20 -30 -20 -6 0 -18 -8 -25 -19 -7 -10 -23 -21 -35 -25 -13 -4 -30 -20
-40 -36 -9 -16 -29 -34 -45 -41 -15 -6 -28 -16 -28 -22 0 -15 -53 -57 -72 -57
-9 0 -20 -5 -23 -11 -4 -6 -14 -8 -23 -4 -19 7 -112 -36 -112 -52 0 -7 -12
-13 -26 -13 -20 0 -24 -4 -19 -19 8 -26 -5 -53 -23 -46 -19 7 -62 -21 -62 -40
0 -20 34 -19 54 1 11 11 25 14 46 9 17 -4 28 -10 25 -15 -6 -10 24 -22 36 -14
12 7 52 -6 44 -14 -4 -4 -14 -7 -23 -8 -10 0 -34 -4 -54 -8 -21 -5 -46 -5 -55
0 -35 15 -65 10 -84 -15 -11 -13 -18 -26 -15 -28 2 -2 22 4 45 13 32 12 45 14
54 5 6 -6 34 -11 62 -11 32 0 45 -3 36 -9 -8 -6 3 -7 30 -4 50 6 179 -18 227
-42 18 -10 37 -13 44 -8 7 4 22 8 33 9 45 1 115 16 115 23 0 13 -128 23 -149
11 -29 -15 -54 -13 -48 5 4 8 1 17 -5 21 -7 4 -8 3 -4 -4 4 -7 1 -12 -8 -12
-23 0 -31 4 -28 13 1 5 -7 11 -18 14 -11 3 -20 9 -20 15 0 5 -9 4 -21 -2 -16
-9 -25 -8 -40 6 -40 36 -23 44 49 22 37 -11 76 -22 87 -25 11 -3 25 -10 31
-14 6 -5 40 -11 75 -14 35 -3 97 -11 137 -17 65 -10 74 -9 92 7 28 25 106 31
163 11 26 -9 58 -16 70 -16 18 1 15 4 -15 20 -49 26 -56 40 -19 40 16 0 31 -6
34 -12 4 -10 7 -10 18 0 11 11 10 14 -9 18 -12 4 -22 11 -22 16 0 12 45 7 113
-13 40 -11 49 -11 56 0 6 9 20 12 42 8 19 -4 79 -8 135 -10 55 -2 109 -9 121
-15 15 -9 25 -7 42 5 17 11 26 12 34 4 13 -13 107 -15 107 -3 0 5 -18 14 -40
21 -22 6 -40 16 -40 20 0 15 80 18 92 4 6 -7 17 -13 24 -13 8 0 14 -4 14 -9 0
-5 11 -12 25 -15 14 -4 35 -16 46 -27 11 -11 33 -22 48 -25 17 -4 31 -14 34
-25 3 -10 12 -19 21 -19 9 0 16 -8 16 -20 0 -11 5 -20 10 -20 6 0 10 16 10 35
0 21 8 44 22 60 25 29 52 34 44 8 -5 -15 1 -18 39 -18 40 0 44 2 39 20 -3 11
-17 30 -31 43 -14 13 -24 24 -22 25 2 1 13 7 25 13 17 10 22 8 32 -15 12 -26
72 -69 72 -51 0 6 17 10 39 10 38 0 39 1 45 45 8 50 30 61 45 21 5 -13 16 -26
23 -29 14 -5 15 12 5 131 -1 12 -8 22 -14 22 -7 0 -13 6 -13 13 0 7 -9 31 -20
54 -16 35 -23 40 -45 36 -18 -4 -25 -1 -25 11 0 9 -4 16 -10 16 -5 0 -10 -4
-10 -9 0 -6 5 -13 10 -16 15 -9 12 -25 -4 -25 -8 0 -24 11 -37 25 -13 14 -36
32 -51 41 -25 13 -27 13 -21 -3 5 -13 3 -15 -13 -9 -10 5 -39 15 -64 23 -25 9
-51 21 -59 27 -17 13 -84 36 -90 31 -7 -8 21 -35 36 -35 8 0 11 -5 8 -10 -4
-7 -11 -8 -18 -2 -7 5 -52 13 -102 17 -55 4 -100 13 -115 23 -18 12 -43 15
-93 13 -51 -2 -71 1 -80 12 -15 18 -143 31 -153 15 -4 -6 -21 -8 -42 -4 -20 3
-41 1 -47 -4 -6 -5 -26 -5 -50 0 -55 13 -75 12 -75 -2 0 -14 -83 -19 -96 -5
-13 13 -61 8 -74 -8 -16 -19 -46 -19 -53 -1 -5 12 -12 13 -35 4 -16 -6 -38 -8
-48 -4 -18 8 -18 8 2 16 12 5 25 14 30 21 5 9 2 10 -12 5 -10 -4 -23 -9 -29
-10 -5 -2 -17 -6 -25 -9 -8 -4 -34 -13 -58 -21 -23 -9 -52 -25 -65 -38 -28
-30 -106 -72 -115 -63 -4 4 8 19 25 33 82 68 101 82 112 82 6 0 11 5 11 10 0
6 7 10 15 10 8 0 15 7 15 15 0 20 -19 19 -27 -1z m302 -84 c-3 -5 -12 -10 -18
-10 -7 0 -6 4 3 10 19 12 23 12 15 0z m1168 -154 c4 -10 1 -13 -8 -9 -8 3 -12
9 -9 14 7 12 11 11 17 -5z m51 -51 c3 -8 1 -15 -3 -15 -5 0 -11 7 -15 15 -3 8
-1 15 3 15 5 0 11 -7 15 -15z m-654 -124 c0 -5 -9 -7 -20 -4 -11 3 -20 7 -20
9 0 2 9 4 20 4 11 0 20 -4 20 -9z m-760 -92 c0 -11 -7 -11 -49 -3 -45 9 -38
20 9 16 22 -2 40 -8 40 -13z"/>
<path d="M8660 22840 c0 -5 5 -10 10 -10 6 0 10 5 10 10 0 6 -4 10 -10 10 -5
0 -10 -4 -10 -10z"/>
<path d="M9120 22840 c0 -6 7 -10 15 -10 8 0 15 2 15 4 0 2 -7 6 -15 10 -8 3
-15 1 -15 -4z"/>
<path d="M9316 22801 c5 -5 27 -10 49 -11 56 -3 65 -1 65 10 0 6 -27 10 -62
10 -38 0 -58 -4 -52 -9z"/>
<path d="M11746 22753 c-6 -14 -5 -15 5 -6 7 7 10 15 7 18 -3 3 -9 -2 -12 -12z"/>
<path d="M11500 22745 c0 -13 32 -142 40 -160 5 -11 14 -37 20 -57 14 -45 40
-71 40 -39 0 11 -4 21 -10 21 -5 0 -10 15 -10 33 -1 39 -18 120 -29 127 -4 3
-15 22 -24 43 -16 33 -27 46 -27 32z"/>
<path d="M11709 22673 c-16 -43 -6 -63 14 -26 19 37 22 53 7 53 -6 0 -15 -12
-21 -27z"/>
<path d="M7945 22640 c-3 -5 1 -10 9 -10 9 0 16 5 16 10 0 6 -4 10 -9 10 -6 0
-13 -4 -16 -10z"/>
<path d="M11489 22624 c-5 -38 18 -114 33 -114 10 0 10 3 -3 37 -6 15 -13 39
-16 53 -5 26 -12 39 -14 24z"/>
<path d="M9928 22593 c-2 -10 2 -28 10 -40 7 -12 15 -32 17 -45 4 -33 36 -152
42 -158 3 -3 2 31 -2 75 -4 44 -8 92 -9 107 -3 29 -31 78 -45 78 -5 0 -11 -8
-13 -17z"/>
<path d="M10082 22495 c0 -16 2 -22 5 -12 2 9 2 23 0 30 -3 6 -5 -1 -5 -18z"/>
<path d="M11440 22485 c0 -15 4 -24 10 -20 6 3 10 12 10 20 0 8 -4 17 -10 20
-6 4 -10 -5 -10 -20z"/>
<path d="M13878 22503 c7 -3 16 -2 19 1 4 3 -2 6 -13 5 -11 0 -14 -3 -6 -6z"/>
<path d="M12918 22493 c6 -2 18 -2 25 0 6 3 1 5 -13 5 -14 0 -19 -2 -12 -5z"/>
<path d="M13945 22460 c-4 -6 5 -10 20 -10 15 0 24 4 20 10 -3 6 -12 10 -20
10 -8 0 -17 -4 -20 -10z"/>
<path d="M11440 22423 c0 -16 25 -73 32 -73 4 0 7 10 7 23 -1 12 2 30 6 40 6
14 2 17 -19 17 -14 0 -26 -3 -26 -7z"/>
<path d="M9931 22388 c-1 -21 4 -38 9 -38 12 0 12 27 0 55 -7 16 -9 13 -9 -17z"/>
<path d="M10104 22409 c-10 -17 13 -36 27 -22 12 12 4 33 -11 33 -5 0 -12 -5
-16 -11z"/>
<path d="M11592 22380 c0 -14 2 -19 5 -12 2 6 2 18 0 25 -3 6 -5 1 -5 -13z"/>
<path d="M12525 22390 c-3 -5 3 -10 14 -10 12 0 21 5 21 10 0 6 -6 10 -14 10
-8 0 -18 -4 -21 -10z"/>
<path d="M8858 22383 c7 -3 16 -2 19 1 4 3 -2 6 -13 5 -11 0 -14 -3 -6 -6z"/>
<path d="M9020 22380 c0 -5 5 -10 10 -10 6 0 10 5 10 10 0 6 -4 10 -10 10 -5
0 -10 -4 -10 -10z"/>
<path d="M9150 22380 c0 -5 5 -10 10 -10 6 0 10 5 10 10 0 6 -4 10 -10 10 -5
0 -10 -4 -10 -10z"/>
<path d="M13920 22375 c0 -8 -5 -15 -12 -15 -6 0 -8 -3 -5 -6 8 -8 37 14 37
27 0 5 -4 9 -10 9 -5 0 -10 -7 -10 -15z"/>
<path d="M13840 22369 c0 -5 5 -7 10 -4 6 3 10 8 10 11 0 2 -4 4 -10 4 -5 0
-10 -5 -10 -11z"/>
<path d="M12350 22360 c0 -5 -18 -10 -41 -10 -28 0 -39 -4 -37 -12 7 -19 53
-21 68 -4 7 9 23 16 37 16 14 0 21 4 18 10 -3 6 -15 10 -26 10 -10 0 -19 -4
-19 -10z"/>
<path d="M10115 22350 c3 -5 11 -10 16 -10 6 0 7 5 4 10 -3 6 -11 10 -16 10
-6 0 -7 -4 -4 -10z"/>
<path d="M9088 22343 c6 -2 18 -2 25 0 6 3 1 5 -13 5 -14 0 -19 -2 -12 -5z"/>
<path d="M13810 22341 c0 -6 9 -15 21 -21 18 -10 20 -9 17 7 -3 19 -38 32 -38
14z"/>
<path d="M11602 22320 c0 -14 2 -19 5 -12 2 6 2 18 0 25 -3 6 -5 1 -5 -13z"/>
<path d="M13254 22325 c-10 -8 -14 -14 -9 -15 15 0 40 18 34 24 -3 3 -14 -1
-25 -9z"/>
<path d="M7750 22320 c-13 -9 -13 -10 0 -9 8 1 26 5 40 9 l25 8 -25 1 c-14 0
-32 -4 -40 -9z"/>
<path d="M8320 22299 c0 -5 5 -7 10 -4 6 3 10 8 10 11 0 2 -4 4 -10 4 -5 0
-10 -5 -10 -11z"/>
<path d="M13780 22290 c-6 -11 -16 -17 -25 -14 -8 4 -15 1 -15 -5 0 -12 14
-14 48 -5 13 4 22 14 22 25 0 25 -16 24 -30 -1z"/>
<path d="M12240 22285 c0 -8 5 -15 10 -15 6 0 10 7 10 15 0 8 -4 15 -10 15 -5
0 -10 -7 -10 -15z"/>
<path d="M13475 22280 c-3 -5 1 -10 9 -10 9 0 16 5 16 10 0 6 -4 10 -9 10 -6
0 -13 -4 -16 -10z"/>
<path d="M7656 22268 c3 -4 14 -8 25 -8 11 0 31 -7 44 -16 26 -17 55 -10 36 9
-12 12 -112 27 -105 15z"/>
<path d="M8018 22273 c7 -3 16 -2 19 1 4 3 -2 6 -13 5 -11 0 -14 -3 -6 -6z"/>
<path d="M8060 22263 c8 -3 19 -11 23 -17 6 -7 7 -6 4 4 -2 8 -12 16 -23 17
-13 2 -15 1 -4 -4z"/>
<path d="M13680 22259 c0 -6 -7 -9 -15 -5 -8 3 -15 1 -15 -4 0 -15 26 -12 40
5 9 10 9 15 1 15 -6 0 -11 -5 -11 -11z"/>
<path d="M9698 22223 c12 -2 32 -2 45 0 12 2 2 4 -23 4 -25 0 -35 -2 -22 -4z"/>
<path d="M9594 22196 c-9 -9 -8 -17 2 -30 16 -23 34 -12 34 20 0 26 -18 31
-36 10z"/>
<path d="M12123 22193 c9 -2 23 -2 30 0 6 3 -1 5 -18 5 -16 0 -22 -2 -12 -5z"/>
<path d="M9688 22183 c7 -3 16 -2 19 1 4 3 -2 6 -13 5 -11 0 -14 -3 -6 -6z"/>
<path d="M11520 22180 c0 -13 30 -13 50 0 11 7 7 10 -17 10 -18 0 -33 -4 -33
-10z"/>
<path d="M12080 22179 c0 -5 5 -7 10 -4 6 3 10 8 10 11 0 2 -4 4 -10 4 -5 0
-10 -5 -10 -11z"/>
<path d="M10193 22163 c-21 -3 -33 -10 -33 -20 0 -11 6 -14 23 -9 12 3 30 6
40 6 9 0 17 7 17 15 0 8 -3 14 -7 13 -5 0 -23 -3 -40 -5z"/>
<path d="M9730 22150 c0 -5 7 -10 15 -10 8 0 15 5 15 10 0 6 -7 10 -15 10 -8
0 -15 -4 -15 -10z"/>
<path d="M13795 22150 c-3 -5 -1 -10 4 -10 6 0 11 5 11 10 0 6 -2 10 -4 10 -3
0 -8 -4 -11 -10z"/>
<path d="M9967 22112 c-18 -20 -24 -82 -8 -82 5 0 16 -3 25 -6 11 -4 16 -1 16
10 0 9 9 25 21 37 20 20 20 22 3 40 -21 24 -36 24 -57 1z"/>
<path d="M9688 22113 c7 -3 16 -2 19 1 4 3 -2 6 -13 5 -11 0 -14 -3 -6 -6z"/>
<path d="M10140 22100 c0 -5 5 -10 10 -10 6 0 10 5 10 10 0 6 -4 10 -10 10 -5
0 -10 -4 -10 -10z"/>
<path d="M13921 22094 c0 -11 3 -14 6 -6 3 7 2 16 -1 19 -3 4 -6 -2 -5 -13z"/>
<path d="M12000 22069 c0 -5 5 -7 10 -4 6 3 10 8 10 11 0 2 -4 4 -10 4 -5 0
-10 -5 -10 -11z"/>
<path d="M8975 22028 c-93 -4 -177 -8 -185 -9 -42 -3 -168 -28 -193 -38 -15
-6 -31 -10 -35 -9 -15 4 -78 -15 -146 -44 -113 -48 -139 -61 -165 -80 -13 -10
-37 -18 -53 -18 -20 0 -31 -6 -35 -18 -4 -19 -63 -47 -63 -31 0 5 -5 9 -11 9
-6 0 -9 -7 -6 -14 4 -10 -2 -18 -16 -22 -33 -10 -73 -47 -69 -64 2 -13 13 -15
60 -10 31 4 71 12 87 20 17 7 41 17 55 22 14 5 42 19 62 29 43 22 97 17 77 -7
-6 -8 -18 -14 -26 -14 -7 0 -16 -7 -20 -16 -6 -16 -96 -64 -120 -64 -7 0 -13
-4 -13 -10 0 -5 -7 -10 -15 -10 -8 0 -15 -4 -15 -9 0 -8 -117 -48 -245 -84
-22 -6 -48 -16 -58 -23 -31 -20 -2 -27 91 -20 l87 6 -42 -17 c-62 -25 -55 -41
15 -36 31 3 68 8 82 12 15 5 32 4 42 -3 12 -7 30 -7 63 2 25 7 70 12 100 12
30 0 55 3 55 8 0 9 167 14 200 5 24 -6 23 -7 -10 -13 l-35 -7 43 -2 c23 0 42
3 42 8 0 6 19 11 43 13 l42 3 -42 14 c-43 14 -54 26 -31 33 7 3 8 10 4 17 -7
11 -10 11 -18 0 -5 -9 -6 -4 -2 14 4 17 2 27 -5 27 -6 0 -11 9 -11 20 0 12 21
33 59 60 63 42 91 50 91 24 0 -8 5 -12 10 -9 8 5 7 11 -1 21 -6 8 -8 18 -4 22
4 4 10 1 12 -5 3 -7 11 -13 19 -13 8 0 14 -10 14 -25 0 -23 6 -41 37 -113 21
-48 70 -100 116 -124 45 -22 157 -37 157 -20 0 5 16 12 35 14 19 2 35 0 35 -5
0 -13 108 2 148 20 65 31 141 203 142 320 0 51 17 47 24 -5 4 -26 13 -56 21
-66 16 -22 17 -19 16 39 -1 36 0 38 12 23 8 -10 19 -18 26 -18 10 0 15 -19 12
-47 -3 -22 20 -25 26 -4 3 12 9 21 13 21 13 0 30 -59 30 -104 1 -33 3 -38 11
-23 6 9 8 27 5 40 -3 12 -3 16 0 10 7 -16 34 -17 34 -2 0 5 4 8 10 4 5 -3 7
-11 4 -18 -2 -7 2 -21 10 -32 14 -18 15 -18 16 -2 0 21 30 23 30 2 0 -8 -4
-15 -9 -15 -5 0 -11 -10 -14 -21 -5 -20 -3 -21 29 -16 25 4 37 2 40 -8 7 -19
-22 -50 -31 -34 -4 6 -16 9 -26 6 -12 -3 -19 0 -19 9 0 7 -6 11 -14 8 -8 -3
-12 -12 -9 -19 10 -27 -7 -35 -39 -19 -38 20 -132 12 -189 -15 -21 -10 -41
-15 -46 -11 -10 10 -73 0 -73 -11 0 -11 31 -13 133 -10 56 2 77 0 77 -9 0 -9
4 -9 13 -2 15 13 195 13 203 1 3 -5 28 -9 55 -9 43 0 51 3 61 25 10 22 8 33
-10 71 -24 49 -146 217 -181 248 -12 11 -21 23 -21 28 0 15 20 8 38 -13 35
-44 165 -170 169 -165 3 2 -5 14 -17 26 -24 24 -24 71 0 77 12 4 12 3 1 -5
-10 -7 -10 -11 -1 -17 17 -10 34 11 35 43 0 22 5 27 25 27 19 0 25 -6 31 -34
10 -46 33 -69 53 -51 20 16 20 30 1 30 -11 0 -15 11 -15 40 0 33 -3 40 -20 40
-11 0 -20 7 -20 15 0 21 -48 20 -72 -2 -10 -9 -18 -11 -18 -6 0 6 -11 14 -25
17 -30 8 -33 26 -6 33 29 7 33 31 10 54 -23 23 -54 19 -81 -12 -9 -10 -25 -19
-36 -19 -18 0 -20 5 -17 38 3 20 2 29 -1 20 -9 -28 -74 -20 -74 8 0 8 -10 14
-23 14 -13 0 -34 10 -46 22 -17 15 -37 21 -70 22 -25 0 -50 6 -56 13 -5 6 -23
15 -40 18 -23 5 -26 4 -15 -4 13 -9 13 -11 -2 -11 -9 0 -24 3 -33 6 -13 5 -14
8 -3 15 10 7 9 9 -4 9 -9 0 -20 -4 -23 -10 -3 -5 -18 -7 -33 -5 -66 10 -118
11 -277 3z m136 -35 c6 -6 -37 -12 -120 -17 -71 -4 -153 -13 -183 -22 -75 -21
-152 -28 -174 -15 -17 9 -15 10 12 11 17 0 53 7 79 15 27 8 88 17 135 21 47 4
92 11 100 16 19 11 138 4 151 -9z m-448 -88 c-1 -5 -15 -12 -30 -13 -15 -2
-32 -7 -38 -12 -26 -21 -85 -49 -85 -40 0 6 -7 10 -15 10 -18 0 -20 -16 -2
-23 6 -3 -3 -6 -22 -6 -20 -1 -45 -11 -63 -26 -29 -25 -88 -35 -88 -15 0 6 6
10 14 10 8 0 16 6 19 14 4 9 14 12 26 9 15 -4 21 -1 21 11 0 9 5 16 12 16 6 0
22 10 36 23 13 12 44 30 70 39 50 18 149 20 145 3z m427 -120 c0 -8 -7 -15
-15 -15 -8 0 -15 7 -15 15 0 8 7 15 15 15 8 0 15 -7 15 -15z"/>
<path d="M9505 22030 c-3 -5 -1 -10 4 -10 6 0 11 5 11 10 0 6 -2 10 -4 10 -3
0 -8 -4 -11 -10z"/>
<path d="M10138 22033 c7 -3 16 -2 19 1 4 3 -2 6 -13 5 -11 0 -14 -3 -6 -6z"/>
<path d="M9848 22023 c7 -3 16 -2 19 1 4 3 -2 6 -13 5 -11 0 -14 -3 -6 -6z"/>
<path d="M11911 22014 c0 -11 3 -14 6 -6 3 7 2 16 -1 19 -3 4 -6 -2 -5 -13z"/>
<path d="M9890 21991 c0 -5 13 -12 30 -16 45 -10 47 -25 3 -25 -53 0 -83 10
-83 26 0 19 -29 18 -37 -2 -3 -9 2 -23 12 -32 13 -13 19 -14 22 -4 3 6 9 12
14 12 5 0 4 -9 -3 -20 -15 -24 -1 -53 28 -59 10 -2 22 -8 26 -14 9 -14 91 -9
100 6 9 15 10 69 2 91 -3 9 -14 16 -24 16 -10 0 -20 7 -24 15 -6 16 -66 21
-66 6z m110 -81 c0 -18 -7 -20 -70 -20 -63 0 -70 2 -70 20 0 18 7 20 70 20 63
0 70 -2 70 -20z"/>
<path d="M10026 21993 c-12 -12 -6 -43 9 -43 8 0 15 9 15 19 0 21 -13 34 -24
24z"/>
<path d="M12420 21984 c-63 -7 -143 -20 -178 -29 -71 -17 -203 -75 -197 -85 3
-4 -13 -15 -35 -25 -22 -10 -40 -24 -40 -31 0 -18 -49 -74 -66 -74 -8 0 -14
-7 -14 -17 0 -13 -40 -76 -60 -93 -21 -18 -110 -184 -110 -205 0 -19 46 -24
89 -9 21 7 81 19 135 27 110 16 155 40 71 37 -82 -3 -95 -1 -95 15 0 8 -6 15
-14 15 -13 0 -46 51 -46 72 0 16 29 7 45 -14 17 -23 17 -23 13 9 -2 17 -2 31
1 30 12 -4 47 39 65 81 22 49 33 53 38 15 l4 -28 12 28 c7 16 12 42 12 58 0
32 25 41 33 12 3 -12 7 -8 12 15 10 43 25 51 25 12 0 -22 4 -29 13 -23 31 19
42 12 44 -28 3 -49 29 -142 54 -190 25 -50 96 -109 130 -109 15 0 30 -4 33 -9
6 -10 56 -3 73 11 14 11 36 1 28 -12 -7 -11 45 -4 143 17 86 19 115 43 155
125 30 62 46 126 47 186 0 23 5 42 10 42 6 0 10 -6 10 -13 0 -14 50 -67 63
-67 4 0 7 9 7 20 0 11 -7 20 -15 20 -9 0 -15 9 -15 23 1 21 2 21 24 -6 13 -16
34 -34 47 -41 13 -6 24 -21 24 -31 0 -14 7 -20 23 -19 12 0 22 -3 22 -8 0 -4
-4 -8 -10 -8 -14 0 -13 -37 1 -46 8 -5 6 -10 -5 -16 -22 -13 -20 -30 4 -26 10
2 19 0 20 -4 1 -23 -1 -27 -17 -31 -11 -3 -6 -5 11 -6 36 -1 28 -12 -11 -16
-45 -3 -73 -15 -73 -31 0 -8 -8 -14 -18 -14 -29 0 -34 -12 -11 -28 15 -10 24
-11 32 -3 6 6 7 11 2 11 -5 0 0 7 11 14 15 11 43 14 105 12 46 -2 90 1 96 6 9
7 25 4 53 -10 34 -17 56 -19 162 -16 89 3 128 8 146 20 17 11 27 13 35 5 14
-14 107 -15 107 -1 0 6 -18 10 -40 10 -23 0 -40 5 -40 11 0 8 17 10 56 6 42
-4 56 -2 61 9 3 8 14 14 24 14 10 0 19 4 19 9 0 11 -69 36 -76 28 -3 -3 -21 1
-40 9 -18 8 -37 14 -41 13 -20 -3 -27 2 -13 11 12 8 12 10 -5 11 -26 1 -97 40
-103 56 -2 8 8 12 30 11 41 -1 102 18 118 37 10 12 7 17 -16 26 -16 6 -37 15
-46 20 -10 5 -25 9 -33 9 -8 0 -15 6 -15 13 0 6 -15 18 -32 25 -18 7 -46 19
-61 27 -16 8 -35 15 -44 15 -8 0 -26 9 -40 20 -14 11 -33 20 -43 20 -9 0 -34
9 -56 19 -25 12 -41 15 -45 9 -4 -7 -9 -7 -13 0 -3 5 -26 10 -52 10 -25 1 -52
6 -58 11 -13 11 -206 26 -421 34 -68 3 -170 -1 -235 -9z m88 -191 c5 -18 -28
-29 -38 -12 -5 7 -6 17 -3 22 7 12 35 5 41 -10z m949 -79 c-3 -3 -12 -4 -19
-1 -8 3 -5 6 6 6 11 1 17 -2 13 -5z m53 -164 c8 -5 12 -11 9 -14 -3 -3 -14 1
-25 9 -21 16 -8 20 16 5z m60 -10 c0 -5 -4 -10 -10 -10 -5 0 -10 5 -10 10 0 6
5 10 10 10 6 0 10 -4 10 -10z m-1673 -46 c-3 -3 -12 -4 -19 -1 -8 3 -5 6 6 6
11 1 17 -2 13 -5z"/>
<path d="M6105 21813 c-11 -3 -24 -9 -29 -14 -6 -5 -16 -9 -22 -9 -19 0 -64
-45 -64 -64 0 -9 -4 -16 -10 -16 -13 0 -13 -59 1 -98 11 -32 12 -32 72 -10 33
13 35 28 5 28 -22 1 -22 1 -4 11 10 6 21 7 25 3 7 -10 66 -44 75 -44 14 0 4
50 -11 59 -16 9 -15 11 7 12 14 0 40 0 58 -1 19 -1 32 3 32 10 0 7 7 9 16 6
46 -18 64 -18 64 -1 0 15 1 15 16 1 21 -21 23 -20 16 6 -9 36 -51 81 -96 104
-32 16 -119 26 -151 17z"/>
<path d="M11935 21810 c-3 -5 1 -10 9 -10 9 0 16 5 16 10 0 6 -4 10 -9 10 -6
0 -13 -4 -16 -10z"/>
<path d="M11888 21803 c6 -2 18 -2 25 0 6 3 1 5 -13 5 -14 0 -19 -2 -12 -5z"/>
<path d="M11760 21740 c0 -5 18 -10 40 -10 22 0 40 5 40 10 0 6 -18 10 -40 10
-22 0 -40 -4 -40 -10z"/>
<path d="M11780 21669 c0 -11 5 -17 10 -14 6 3 10 13 10 21 0 8 -4 14 -10 14
-5 0 -10 -9 -10 -21z"/>
<path d="M6321 21644 c0 -11 3 -14 6 -6 3 7 2 16 -1 19 -3 4 -6 -2 -5 -13z"/>
<path d="M13098 21473 c7 -3 16 -2 19 1 4 3 -2 6 -13 5 -11 0 -14 -3 -6 -6z"/>
<path d="M8630 21460 c19 -13 30 -13 30 0 0 6 -10 10 -22 10 -19 0 -20 -2 -8
-10z"/>
<path d="M15191 21426 c-11 -37 -10 -48 2 -72 l15 -28 13 30 c17 34 13 114 -4
114 -7 0 -18 -20 -26 -44z"/>
<path d="M12290 21455 c0 -2 9 -9 20 -15 16 -9 18 -8 14 5 -5 13 -34 22 -34
10z"/>
<path d="M12870 21440 c0 -5 -12 -10 -26 -10 -14 0 -23 -4 -19 -10 3 -5 17
-10 31 -10 17 0 24 5 24 20 0 11 -2 20 -5 20 -3 0 -5 -4 -5 -10z"/>
<path d="M9265 21420 c3 -5 8 -10 11 -10 2 0 4 5 4 10 0 6 -5 10 -11 10 -5 0
-7 -4 -4 -10z"/>
<path d="M12697 21404 c-8 -8 3 -34 14 -34 5 0 9 9 9 20 0 19 -11 26 -23 14z"/>
<path d="M15180 21270 c0 -22 -4 -40 -10 -40 -5 0 -10 -8 -10 -17 0 -14 3 -14
20 5 11 12 20 33 20 47 0 14 5 25 11 25 5 0 7 5 4 10 -3 6 -13 10 -21 10 -10
0 -14 -12 -14 -40z"/>
<path d="M14825 20120 c-3 -5 -1 -10 4 -10 6 0 11 5 11 10 0 6 -2 10 -4 10 -3
0 -8 -4 -11 -10z"/>
<path d="M14400 19782 c0 -56 18 -68 52 -35 31 29 35 43 14 43 -8 0 -16 7 -20
15 -3 8 -15 15 -26 15 -17 0 -20 -6 -20 -38z"/>
<path d="M11300 19538 c-1 -14 -100 -128 -100 -115 0 9 -70 -27 -115 -59 -41
-30 -102 -54 -134 -54 -15 0 -31 -4 -36 -9 -6 -4 -32 -15 -60 -24 -27 -8 -74
-22 -103 -31 -29 -10 -57 -14 -62 -11 -5 3 -46 19 -91 36 -45 16 -88 38 -96
49 -8 11 -20 20 -27 20 -8 0 -19 7 -26 15 -7 8 -19 15 -27 15 -8 0 -33 16 -56
35 -22 19 -46 35 -52 35 -6 0 -31 10 -56 22 -47 24 -104 28 -199 13 -58 -9
-104 -31 -94 -46 3 -5 -2 -9 -10 -9 -9 0 -15 5 -13 11 1 6 -4 14 -10 16 -7 3
-13 0 -13 -7 0 -14 -66 -3 -97 16 -57 36 -46 -7 16 -64 55 -51 90 -62 244 -73
164 -13 200 -22 191 -51 -5 -15 -2 -19 13 -16 10 2 18 8 18 15 0 27 19 20 121
-51 207 -143 269 -162 477 -145 66 5 123 12 127 14 4 3 11 -5 15 -18 4 -13 8
-17 12 -9 2 6 9 12 14 12 6 0 20 11 33 25 13 14 28 25 34 25 24 0 62 24 62 39
0 9 14 24 30 33 17 9 30 24 30 33 0 8 5 15 10 15 6 0 10 7 10 15 0 8 6 15 13
15 8 0 28 7 45 15 19 10 71 18 143 21 62 2 115 7 118 9 2 3 14 -2 27 -10 12
-8 35 -17 51 -19 15 -3 40 -8 55 -11 14 -4 29 -1 33 4 3 6 15 11 26 11 10 0
19 5 19 10 0 6 10 10 23 10 23 0 87 66 87 89 0 6 9 20 21 32 11 11 18 27 15
35 -3 9 -1 24 4 34 5 10 7 26 4 35 -6 14 -9 14 -28 -3 -11 -10 -38 -29 -58
-41 -21 -13 -38 -27 -38 -32 0 -12 -47 -12 -55 1 -3 6 -15 10 -26 10 -10 0
-19 4 -19 8 0 11 -51 35 -58 27 -3 -3 -13 2 -22 10 -16 14 -50 17 -176 13 -28
-1 -57 3 -65 7 -24 15 -119 17 -119 3z"/>
<path d="M14357 19364 c-3 -11 -11 -46 -17 -78 -11 -54 -10 -61 6 -73 10 -7
25 -13 33 -13 21 1 80 28 62 29 -19 1 -40 32 -41 59 0 12 -4 22 -10 22 -5 0
-10 10 -10 23 0 12 -4 28 -9 36 -7 11 -10 10 -14 -5z"/>
<path d="M11305 19240 c-3 -5 1 -10 9 -10 9 0 16 5 16 10 0 6 -4 10 -9 10 -6
0 -13 -4 -16 -10z"/>
<path d="M7205 19119 c-10 -15 1 -23 20 -15 9 3 13 10 10 16 -8 13 -22 13 -30
-1z"/>
<path d="M13920 19080 c0 -5 5 -10 11 -10 5 0 7 5 4 10 -3 6 -8 10 -11 10 -2
0 -4 -4 -4 -10z"/>
<path d="M14000 19020 c0 -5 -16 -10 -35 -10 -35 0 -35 0 -35 -45 l0 -45 45 0
c45 0 45 0 45 35 0 31 3 35 25 35 32 0 32 14 0 28 -32 15 -45 15 -45 2z"/>
<path d="M12854 18969 c-7 -12 42 -59 62 -59 7 0 18 9 23 19 13 24 -9 45 -39
36 -11 -4 -20 -2 -20 4 0 14 -17 14 -26 0z"/>
<path d="M13853 18914 c-35 -34 -68 -74 -75 -90 l-12 -29 -4 38 c-2 20 -7 37
-12 37 -20 0 -40 -13 -40 -26 0 -9 -11 -14 -30 -14 -28 0 -30 -2 -30 -40 0
-36 3 -40 25 -40 30 0 31 -4 5 -32 -11 -12 -20 -28 -20 -35 0 -7 -4 -13 -10
-13 -5 0 -10 -18 -10 -40 0 -31 4 -40 17 -40 14 0 13 -3 -5 -16 -12 -8 -22
-24 -22 -34 0 -30 -11 -50 -27 -50 -8 0 -28 -8 -44 -17 -25 -15 -31 -15 -38
-4 -7 11 -11 9 -20 -7 -15 -27 -14 -32 4 -32 22 0 19 -8 -15 -37 -16 -13 -30
-33 -30 -44 0 -10 -5 -19 -10 -19 -6 0 -10 6 -8 13 4 17 -3 20 -24 12 -13 -5
-18 -18 -18 -46 0 -28 -4 -39 -15 -39 -9 0 -19 -8 -22 -17 -4 -10 -14 -24 -24
-30 -10 -7 -27 -43 -39 -79 -14 -40 -34 -77 -52 -95 -24 -22 -28 -32 -19 -42
8 -11 5 -19 -14 -35 -17 -15 -25 -32 -25 -55 0 -37 -33 -141 -51 -163 -6 -8
-9 -21 -5 -29 3 -8 1 -15 -4 -15 -6 0 -10 -10 -10 -23 0 -13 -7 -32 -14 -43
-8 -10 -23 -54 -32 -96 -9 -43 -21 -78 -25 -78 -5 0 -9 -10 -9 -23 0 -13 -5
-28 -11 -34 -6 -6 -13 -66 -16 -137 -5 -112 -4 -126 11 -126 9 0 16 5 16 10 0
6 16 10 36 10 41 0 73 -25 55 -43 -8 -8 -11 -7 -11 6 0 13 -9 17 -39 17 -22 0
-42 -4 -45 -9 -3 -5 -22 -12 -41 -15 -45 -9 -45 -23 0 -32 32 -6 59 -24 36
-24 -12 0 -71 -58 -71 -71 0 -5 -4 -9 -9 -9 -5 0 -23 -14 -40 -31 -23 -22 -31
-40 -31 -65 0 -33 -2 -34 -37 -34 -52 -1 -83 -28 -83 -74 0 -26 -4 -36 -16
-36 -8 0 -33 -18 -54 -40 -21 -22 -43 -40 -49 -40 -6 0 -13 -17 -17 -38 -6
-40 -13 -45 -101 -72 -37 -11 -43 -17 -43 -41 0 -15 -5 -31 -10 -34 -6 -4 -19
-24 -30 -46 -11 -21 -27 -39 -36 -39 -8 0 -29 -7 -46 -16 -25 -13 -32 -14 -39
-2 -7 10 -17 3 -44 -27 -19 -22 -34 -43 -35 -46 0 -4 -18 -9 -39 -13 -22 -3
-41 -11 -43 -17 -2 -6 -34 -10 -81 -10 -70 0 -77 -1 -77 -19 0 -17 -7 -20 -48
-20 -41 0 -51 -4 -80 -35 -17 -20 -32 -40 -32 -45 0 -14 -143 -13 -157 1 -7 7
-13 7 -17 1 -3 -6 -2 -13 4 -17 5 -3 10 -19 10 -36 0 -27 -2 -29 -40 -29 -29
0 -40 -4 -40 -15 0 -8 -13 -36 -29 -61 l-29 -46 -10 28 -10 29 -1 -27 c-1 -23
-6 -28 -25 -28 -22 0 -25 5 -28 42 -3 46 -28 67 -28 24 0 -24 -4 -26 -40 -26
-22 0 -40 -5 -40 -11 0 -7 -17 -10 -45 -7 -31 2 -45 -1 -45 -9 0 -7 4 -13 10
-13 5 0 7 -7 4 -15 -5 -11 -22 -15 -64 -15 -39 0 -62 5 -70 15 -17 21 -30 19
-30 -5 0 -17 -7 -20 -40 -20 -31 0 -40 -4 -40 -17 0 -13 -13 -5 -45 28 -24 26
-46 44 -49 41 -4 -3 -6 -25 -6 -49 0 -41 -1 -43 -30 -43 -20 0 -30 5 -30 15 0
11 -11 15 -40 15 -36 0 -40 3 -40 25 0 23 -4 25 -40 25 -33 0 -40 -3 -40 -20
0 -25 -7 -25 -48 0 -25 16 -50 20 -112 20 -73 0 -80 -2 -80 -20 0 -15 -7 -20
-25 -20 -16 0 -25 6 -25 15 0 33 -31 28 -71 -11 -28 -28 -39 -33 -39 -21 0 23
-16 21 -33 -4 -12 -17 -23 -20 -63 -17 -48 4 -48 4 -16 12 33 9 45 36 15 36
-10 0 -28 3 -40 6 -20 6 -23 3 -23 -25 0 -24 -4 -31 -19 -31 -10 0 -21 -9 -24
-20 -3 -11 -12 -20 -21 -20 -13 0 -16 12 -16 60 0 47 -3 60 -15 60 -9 0 -18
-7 -22 -16 -4 -12 -14 -14 -38 -10 -24 5 -36 2 -50 -14 -10 -11 -22 -20 -27
-20 -15 0 -8 39 10 49 13 8 7 10 -30 11 l-48 0 0 -41 c0 -24 -4 -38 -10 -34
-5 3 -10 14 -10 24 0 24 -31 51 -58 51 -12 0 -22 4 -22 8 0 5 -18 17 -40 27
-22 10 -40 22 -40 27 0 5 -17 25 -37 46 -31 30 -38 34 -41 20 -5 -23 -15 -23
-38 3 -15 17 -16 22 -4 29 13 8 11 13 -9 32 -16 16 -25 19 -28 11 -3 -8 -22
-13 -45 -13 -40 0 -40 0 -36 35 4 35 4 35 -34 35 -41 0 -92 35 -84 57 7 18
-45 43 -89 43 -28 0 -35 4 -35 20 0 11 -7 20 -15 20 -8 0 -25 11 -39 25 -19
18 -36 25 -66 25 -28 0 -40 4 -40 14 0 8 5 16 12 18 9 3 9 6 0 12 -7 4 -12 2
-12 -3 0 -6 -9 -11 -20 -11 -17 0 -20 7 -20 40 0 33 -3 40 -20 40 -13 0 -20
-7 -20 -19 0 -12 -9 -21 -25 -25 -17 -4 -25 -13 -25 -27 0 -17 -4 -20 -22 -15
-13 3 -26 6 -30 6 -5 0 -8 7 -8 15 0 8 -11 17 -24 21 -13 3 -26 14 -29 25 -4
16 0 19 28 19 21 0 38 -6 43 -16 8 -15 12 -14 32 6 l23 23 -21 18 c-12 9 -22
24 -22 33 0 11 -9 16 -29 16 -17 0 -33 5 -36 10 -3 6 -26 10 -51 10 l-44 0 0
70 0 70 -30 0 c-28 0 -30 2 -32 43 0 23 -4 -2 -8 -55 -3 -54 -10 -101 -14
-105 -4 -5 -18 4 -29 18 -12 15 -32 30 -43 33 -12 4 -24 16 -27 26 -7 26 -37
26 -37 1 0 -11 -9 -23 -21 -26 -17 -6 -19 -9 -8 -16 10 -6 11 -9 2 -9 -9 0
-13 -22 -13 -75 0 -43 4 -75 10 -75 6 0 10 -18 10 -40 0 -37 2 -40 28 -40 36
0 52 -16 52 -52 0 -26 3 -28 40 -28 39 0 40 -1 40 -35 0 -28 8 -44 38 -73 l37
-37 3 88 c2 62 6 87 15 84 8 -2 10 -30 8 -89 -2 -77 0 -89 20 -112 27 -31 36
-32 42 -8 3 9 5 0 6 -20 1 -34 4 -38 27 -38 25 0 26 -2 22 -52 -3 -52 -3 -52
32 -61 19 -5 47 -9 63 -10 19 0 27 -5 27 -18 0 -22 45 -27 53 -6 3 6 6 -10 6
-38 1 -50 1 -50 53 -75 28 -14 56 -33 62 -42 6 -10 18 -18 26 -18 17 0 89 -69
89 -83 0 -5 2 -11 5 -15 3 -3 6 4 6 16 0 12 5 22 10 22 6 0 10 -4 10 -10 0 -5
9 -10 20 -10 17 0 20 -7 20 -39 l0 -38 48 2 c31 2 34 1 10 -2 -23 -2 -38 -9
-38 -18 0 -9 23 -15 80 -20 69 -6 80 -10 80 -26 0 -10 -5 -19 -12 -19 -6 0 -8
-3 -4 -7 4 -5 11 -8 14 -8 4 0 22 -7 41 -15 26 -10 36 -11 39 -2 2 7 21 12 43
12 24 0 38 4 36 11 -1 6 6 13 16 14 13 3 15 0 8 -9 -8 -9 -1 -22 24 -46 19
-19 35 -42 35 -52 0 -14 8 -18 40 -18 33 0 40 -3 40 -20 0 -11 -5 -20 -11 -20
-6 0 3 -13 20 -29 17 -16 31 -34 31 -40 0 -26 19 -8 27 26 4 20 15 39 22 41
11 4 12 0 6 -14 -21 -51 -18 -58 36 -84 28 -14 57 -33 63 -42 6 -10 15 -18 20
-18 23 0 105 -47 109 -62 3 -10 14 -18 26 -18 23 0 106 -25 133 -40 10 -6 26
-10 37 -10 10 0 32 -7 47 -15 16 -8 48 -15 72 -15 23 0 42 -4 42 -9 0 -19 350
-56 415 -43 18 3 25 0 25 -12 0 -9 5 -16 11 -16 6 0 9 7 5 15 -4 10 1 15 14
15 11 0 20 -7 20 -15 0 -18 26 -20 33 -2 4 9 8 9 15 -2 8 -11 24 -11 88 -3 49
7 80 7 82 1 5 -12 89 -12 97 0 3 5 29 7 59 4 59 -6 171 17 221 46 45 26 75 32
75 15 0 -8 -7 -17 -15 -20 -16 -7 -21 -44 -6 -44 5 0 16 -3 24 -6 11 -4 17 5
22 35 7 41 35 59 35 24 0 -10 5 -25 10 -33 9 -13 13 -11 30 10 l20 25 20 -25
c11 -14 20 -19 20 -12 0 7 15 12 40 12 22 0 40 5 40 10 0 6 18 10 40 10 22 0
40 5 40 10 0 6 18 10 40 10 31 0 40 4 40 18 0 10 16 24 43 36 31 14 37 20 24
23 -14 4 -16 8 -6 19 6 7 15 12 19 9 4 -3 11 7 15 22 4 17 2 29 -4 31 -22 7
-10 20 27 28 20 4 40 7 44 6 4 -1 16 10 26 23 11 14 27 25 36 25 9 0 16 5 16
10 0 6 33 10 79 10 71 0 83 3 110 25 16 14 28 32 25 39 -3 7 2 19 11 26 18 15
20 47 3 52 -9 3 -9 6 0 12 7 4 12 2 12 -3 0 -6 7 -11 15 -11 18 0 20 16 4 26
-8 4 2 14 24 26 27 13 35 23 30 35 -5 11 -3 14 6 8 20 -12 90 62 97 104 4 20
20 48 35 64 16 15 29 34 29 42 0 8 7 15 15 15 8 0 15 5 15 10 0 6 7 10 15 10
8 0 15 -4 15 -10 0 -5 5 -10 11 -10 8 0 10 15 6 43 l-5 42 20 -43 c22 -50 34
-48 43 10 5 28 17 51 35 68 16 14 31 34 34 46 4 11 19 27 34 34 15 7 34 16 42
19 8 4 19 17 25 29 5 12 17 22 26 22 9 0 19 7 23 15 3 8 15 15 26 15 20 0 28
16 10 22 -6 2 -6 8 0 18 8 13 10 12 10 -2 0 -10 7 -18 15 -18 8 0 15 9 15 19
0 11 12 29 26 40 20 15 22 21 10 21 -19 0 -21 16 -3 27 22 14 38 51 24 56 -8
3 -5 10 9 21 12 8 24 30 27 48 10 59 25 88 47 88 17 0 20 7 20 40 0 29 -4 40
-15 40 -21 0 -19 12 6 33 14 13 19 25 15 41 -3 12 -1 37 4 54 6 22 5 32 -2 32
-7 0 -9 19 -6 50 4 42 1 56 -18 82 -28 38 -29 39 -9 32 13 -5 15 7 15 75 0 45
-4 81 -9 81 -10 0 -23 -42 -18 -62 2 -7 2 -10 0 -5 -7 12 -32 8 -57 -9 -17
-10 -26 -12 -31 -4 -9 14 35 60 59 60 15 0 17 5 12 34 -5 24 -2 39 9 49 8 9
15 21 15 27 0 6 7 13 15 16 8 3 20 24 25 45 8 28 19 43 36 49 14 6 22 15 19
21 -9 13 3 59 14 59 5 0 7 -9 4 -20 -8 -31 11 -24 24 9 8 21 8 32 0 40 -8 8
-8 11 1 11 7 0 12 7 12 15 0 25 23 65 37 65 7 0 13 7 13 15 0 8 11 17 25 21
20 5 23 10 19 34 -5 22 -2 28 15 33 11 3 26 18 32 34 22 54 32 73 53 95 12 13
20 35 20 55 0 28 4 33 23 33 14 0 23 5 22 13 -5 30 28 111 53 132 19 16 28 34
30 59 1 22 7 36 15 36 7 0 13 7 13 16 0 11 -6 14 -20 9 -25 -8 -27 13 -4 30
19 13 37 105 21 105 -6 0 1 13 16 28 15 15 27 33 27 40 0 7 7 12 15 12 16 0
19 17 9 44 -3 9 -10 13 -15 10 -5 -3 -9 2 -9 10 0 9 -4 16 -10 16 -5 0 -10 18
-10 40 0 22 5 40 10 40 6 0 10 18 10 40 0 29 -4 40 -15 40 -11 0 -15 -11 -15
-40 0 -39 -1 -40 -35 -40 -34 0 -35 -1 -35 -40 0 -29 -4 -40 -15 -40 -12 0
-15 16 -15 80 0 76 -1 80 -22 80 -19 0 -17 4 18 36 24 23 34 39 27 41 -21 8
-16 77 7 98 11 10 20 29 20 42 0 17 6 23 22 23 12 0 30 7 40 17 17 15 18 15
18 0 0 -10 7 -17 15 -17 11 0 15 11 15 40 0 29 -4 40 -15 40 -26 0 -17 37 10
44 24 6 36 36 15 36 -5 0 -10 18 -10 40 0 28 -4 40 -14 40 -9 0 -16 12 -18 32
l-3 33 -62 -61z m-545 -1194 c20 -13 22 -23 22 -92 0 -63 3 -78 15 -78 22 0
19 -8 -17 -43 -30 -28 -31 -31 -13 -35 46 -8 47 -12 13 -44 -27 -27 -30 -33
-15 -36 9 -2 17 -7 17 -12 0 -16 -21 -22 -34 -11 -10 9 -21 4 -47 -21 l-34
-33 33 -3 c48 -5 39 -19 -15 -24 -33 -3 -52 0 -59 9 -6 7 -21 13 -33 13 -20 0
-21 5 -21 96 0 85 3 99 24 127 13 18 28 46 33 62 9 27 14 30 56 33 l47 3 0 40
c0 32 -3 39 -20 39 -11 0 -20 7 -20 15 0 19 34 16 68 -5z m132 0 c0 -5 -4 -10
-10 -10 -5 0 -10 5 -10 10 0 6 5 10 10 10 6 0 10 -4 10 -10z m-60 -75 c0 -8
-4 -15 -10 -15 -5 0 -10 7 -10 15 0 8 5 15 10 15 6 0 10 -7 10 -15z m-296
-400 c3 -8 12 -15 21 -15 8 0 15 7 15 15 0 21 12 19 33 -6 17 -20 18 -22 1
-40 -21 -23 -34 -24 -34 -4 0 11 -11 15 -40 15 -36 0 -40 3 -40 25 0 18 5 25
19 25 10 0 21 -7 25 -15z m-394 -585 c0 -5 -7 -10 -15 -10 -8 0 -15 5 -15 10
0 6 7 10 15 10 8 0 15 -4 15 -10z m-4182 -87 c-5 -25 -28 -28 -28 -4 0 12 6
21 16 21 9 0 14 -7 12 -17z m292 -18 c0 -19 -1 -35 -3 -35 -2 0 -18 16 -37 35
l-34 35 37 0 c36 0 37 -1 37 -35z m160 -159 c0 -7 9 -16 20 -19 24 -6 27 -27
4 -27 -18 0 -43 27 -44 48 0 6 5 12 10 12 6 0 10 -6 10 -14z m80 -66 c0 -11
-4 -20 -10 -20 -5 0 -10 2 -10 4 0 2 -3 11 -6 20 -4 11 -1 16 10 16 9 0 16 -8
16 -20z m193 -147 c-7 -2 -19 -2 -25 0 -7 3 -2 5 12 5 14 0 19 -2 13 -5z m47
-23 c0 -5 -4 -10 -10 -10 -5 0 -10 5 -10 10 0 6 5 10 10 10 6 0 10 -4 10 -10z
m-314 -90 l1 -45 -4 42 c-4 41 -5 42 -44 46 l-39 4 42 -1 43 -1 1 -45z m1454
-186 c0 -8 7 -14 15 -14 11 0 15 -11 15 -40 0 -29 -4 -40 -15 -40 -11 0 -15
11 -15 40 0 22 -4 40 -10 40 -5 0 -10 9 -10 21 0 11 5 17 10 14 6 -3 10 -13
10 -21z m585 -24 c4 -6 -5 -10 -19 -10 -14 0 -26 5 -26 10 0 6 9 10 19 10 11
0 23 -4 26 -10z m63 -2 c-6 -18 -28 -21 -28 -4 0 9 7 16 16 16 9 0 14 -5 12
-12z m-808 -32 c0 -39 -13 -47 -61 -37 l-34 8 38 8 c30 6 37 12 37 31 0 13 5
24 10 24 6 0 10 -15 10 -34z m-895 -46 c-3 -5 -10 -10 -16 -10 -5 0 -9 5 -9
10 0 6 7 10 16 10 8 0 12 -4 9 -10z m2635 -680 c0 -18 -3 -19 -22 -9 -22 12
-22 12 -3 20 11 4 21 8 23 8 1 1 2 -8 2 -19z"/>
<path d="M13250 17510 c0 -29 4 -40 15 -40 11 0 15 11 15 40 0 29 -4 40 -15
40 -11 0 -15 -11 -15 -40z"/>
<path d="M13177 17413 c-12 -11 -8 -23 8 -23 8 0 15 7 15 15 0 16 -12 20 -23
8z"/>
<path d="M13585 18920 c-3 -5 -1 -10 4 -10 6 0 11 5 11 10 0 6 -2 10 -4 10 -3
0 -8 -4 -11 -10z"/>
<path d="M13680 18903 c0 -26 1 -26 14 -8 14 20 12 35 -5 35 -5 0 -9 -12 -9
-27z"/>
<path d="M12930 18894 c0 -8 5 -25 11 -36 8 -15 8 -22 -1 -28 -6 -4 -14 -41
-17 -83 -5 -66 -8 -77 -24 -77 -13 0 -19 -7 -19 -21 0 -19 -5 -21 -97 -20
-160 1 -165 0 -177 -35 -15 -41 -57 -93 -63 -76 -3 6 -9 12 -15 12 -6 0 -8 -7
-4 -15 3 -10 -1 -15 -13 -15 -10 0 -40 -9 -66 -21 -43 -19 -59 -20 -169 -15
-66 3 -139 8 -161 10 -77 8 -160 8 -197 1 -22 -4 -66 -2 -102 6 -52 10 -70 10
-95 -1 -39 -16 -126 -17 -145 -1 -15 13 -19 9 -41 -34 -9 -17 -20 -19 -93 -17
-70 2 -82 0 -82 -14 0 -13 -6 -15 -31 -10 -17 3 -35 6 -40 6 -5 0 -9 7 -9 16
0 11 -5 14 -16 10 -9 -3 -27 -6 -40 -6 -15 0 -24 -6 -24 -15 0 -8 -6 -15 -14
-15 -8 0 -21 7 -30 15 -19 20 -63 19 -74 -1 -5 -9 -22 -18 -38 -20 -16 -1 -35
-12 -43 -23 -7 -12 -18 -21 -22 -21 -13 0 -79 -61 -79 -72 0 -17 -30 -39 -41
-32 -8 5 -7 10 5 16 9 5 16 15 16 23 0 11 -17 14 -78 12 -90 -1 -110 6 -85 31
16 16 14 17 -30 20 -26 2 -47 8 -47 14 0 7 15 9 40 5 50 -6 52 6 3 26 -28 11
-39 12 -41 3 -2 -8 -33 -12 -95 -13 -114 -2 -178 -10 -191 -23 -16 -16 -139
-12 -175 6 -22 11 -48 15 -76 12 -23 -3 -50 -1 -59 4 -25 14 -215 16 -227 2
-6 -7 -33 -10 -78 -6 -48 3 -78 0 -102 -11 -52 -23 -203 -20 -246 5 -18 11
-33 15 -33 9 0 -6 -7 -8 -15 -5 -8 4 -15 12 -15 19 0 7 -14 18 -31 24 -40 14
-39 14 -39 -4 0 -32 -65 -3 -86 37 -12 24 -18 27 -34 18 -16 -9 -20 -8 -20 5
0 19 -5 19 -41 -2 -24 -15 -31 -15 -38 -4 -7 11 -14 10 -38 -3 -17 -8 -33 -12
-37 -9 -3 4 -6 0 -6 -7 0 -8 -19 -34 -42 -57 -37 -38 -40 -43 -21 -43 12 0 26
-6 30 -13 13 -21 56 -47 78 -47 12 0 32 -12 46 -26 35 -37 80 -59 89 -44 5 9
17 10 36 5 16 -5 47 -10 69 -11 76 -4 140 -17 148 -30 4 -8 17 -14 27 -14 11
0 20 -4 20 -9 0 -5 18 -12 41 -16 30 -5 45 -3 58 9 14 13 23 14 48 4 26 -10
39 -8 81 9 44 19 51 19 65 6 12 -13 23 -13 68 -3 44 9 64 8 108 -3 40 -11 62
-12 84 -5 19 7 67 8 131 3 171 -13 195 -14 386 -19 102 -3 195 -8 207 -11 12
-3 25 -1 28 5 7 12 55 14 55 3 0 -5 26 -8 58 -8 35 1 63 -4 74 -13 12 -10 29
-13 55 -8 52 10 55 11 78 23 23 12 136 17 118 5 -9 -6 -7 -11 6 -19 16 -10 18
-9 14 6 -3 13 2 20 19 23 13 3 31 9 41 13 10 4 17 3 17 -4 0 -6 -9 -11 -20
-11 -11 0 -20 -5 -20 -11 0 -12 158 -5 329 17 101 12 121 12 173 -2 61 -15 88
-9 88 20 0 20 49 17 70 -4 11 -11 20 -24 20 -29 0 -5 13 -11 29 -14 19 -4 28
-12 27 -23 0 -9 5 -19 12 -21 6 -3 12 2 12 11 0 25 17 19 24 -9 4 -15 16 -27
31 -31 14 -3 25 -11 25 -17 0 -6 6 -3 13 7 8 11 35 22 68 27 57 9 118 35 132
57 4 6 14 12 22 12 7 0 22 11 33 25 11 14 26 25 34 25 7 0 29 13 48 30 19 16
42 30 50 30 31 1 122 38 111 44 -18 12 -13 38 7 34 9 -2 16 -11 16 -21 -1 -9
4 -17 12 -17 8 0 14 4 14 8 0 5 18 16 40 25 22 8 40 11 40 7 0 -13 25 -1 97
45 68 43 104 94 100 141 -1 21 4 31 21 39 12 5 22 15 22 20 0 6 18 24 40 41
41 30 52 54 25 54 -13 0 -14 4 -5 20 7 14 8 26 0 39 -5 11 -10 38 -10 60 0 34
-3 41 -19 41 -16 0 -21 -8 -24 -42 l-4 -43 -1 46 c-2 39 1 48 18 52 11 3 20
12 20 20 0 9 -9 19 -20 22 -11 3 -20 11 -20 16 0 5 -7 9 -15 9 -8 0 -15 -7
-15 -16z m-1442 -521 c-10 -2 -26 -2 -35 0 -10 3 -2 5 17 5 19 0 27 -2 18 -5z
m-669 -112 c9 -6 10 -11 2 -15 -6 -4 -18 0 -27 8 -12 12 -12 16 -2 16 7 0 19
-4 27 -9z"/>
<path d="M14000 18889 c0 -18 2 -19 15 -9 8 7 15 16 15 21 0 5 -7 9 -15 9 -9
0 -15 -9 -15 -21z"/>
<path d="M8786 18845 c-8 -8 -19 -15 -25 -15 -6 0 -11 -18 -11 -39 0 -25 -5
-41 -15 -45 -8 -3 -15 -11 -15 -19 0 -7 -6 -19 -12 -25 -7 -7 -17 -32 -23 -55
-9 -35 -7 -47 9 -75 l19 -33 11 23 c9 16 9 25 2 31 -6 5 8 5 32 2 40 -6 57 5
31 20 -18 12 -29 54 -20 78 5 12 19 32 30 44 12 12 21 28 21 34 0 7 7 20 16
30 14 16 14 19 -3 38 -21 25 -27 26 -47 6z"/>
<path d="M13986 18765 c-3 -8 -1 -15 4 -15 6 0 10 7 10 15 0 8 -2 15 -4 15 -2
0 -6 -7 -10 -15z"/>
<path d="M12705 18680 c-3 -5 -1 -10 4 -10 6 0 11 5 11 10 0 6 -2 10 -4 10 -3
0 -8 -4 -11 -10z"/>
<path d="M14000 18580 c0 -5 4 -10 9 -10 6 0 13 5 16 10 3 6 -1 10 -9 10 -9 0
-16 -4 -16 -10z"/>
<path d="M14000 18520 c0 -5 7 -10 16 -10 8 0 12 5 9 10 -3 6 -10 10 -16 10
-5 0 -9 -4 -9 -10z"/>
<path d="M13520 18499 c0 -5 5 -7 10 -4 6 3 10 8 10 11 0 2 -4 4 -10 4 -5 0
-10 -5 -10 -11z"/>
<path d="M14002 18370 c0 -14 2 -19 5 -12 2 6 2 18 0 25 -3 6 -5 1 -5 -13z"/>
<path d="M9135 18200 c-3 -5 3 -10 15 -10 12 0 18 5 15 10 -3 6 -10 10 -15 10
-5 0 -12 -4 -15 -10z"/>
<path d="M12000 18034 c0 -8 5 -12 10 -9 6 4 8 11 5 16 -9 14 -15 11 -15 -7z"/>
<path d="M13542 17368 c-16 -16 -15 -28 3 -28 8 0 15 2 15 4 0 2 3 11 6 20 7
19 -7 21 -24 4z"/>
<path d="M8622 16858 c-16 -16 -15 -28 3 -28 8 0 15 9 15 20 0 23 -2 24 -18 8z"/>
<path d="M8532 16818 c6 -18 28 -21 28 -4 0 9 -7 16 -16 16 -9 0 -14 -5 -12
-12z"/>
<path d="M8617 16733 c-12 -11 -8 -31 8 -37 11 -4 15 1 15 19 0 24 -10 32 -23
18z"/>
<path d="M8711 16191 c-8 -5 -9 -11 -3 -15 5 -3 12 1 16 9 6 17 6 18 -13 6z"/>
<path d="M8772 16098 c6 -18 28 -21 28 -4 0 9 -7 16 -16 16 -9 0 -14 -5 -12
-12z"/>
<path d="M13533 16055 c-6 -11 -14 -56 -18 -100 -4 -44 -11 -85 -17 -92 -5 -6
-11 -38 -14 -70 -8 -93 -26 -165 -40 -159 -8 3 -11 0 -7 -10 3 -9 1 -25 -4
-37 -13 -28 -33 -111 -33 -137 0 -10 -10 -28 -22 -40 -21 -19 -21 -20 -2 -20
17 -1 17 -2 3 -13 -9 -7 -18 -26 -22 -42 -9 -53 -34 -109 -56 -126 -13 -11
-21 -29 -21 -48 0 -18 -6 -42 -14 -54 -8 -12 -16 -48 -19 -80 -2 -32 -10 -64
-16 -70 -6 -6 -11 -19 -11 -29 0 -10 -4 -18 -10 -18 -5 0 -10 -11 -10 -24 0
-16 -7 -27 -20 -31 -15 -5 -19 -12 -15 -28 4 -14 -1 -30 -14 -44 -11 -11 -17
-23 -14 -26 3 -4 2 -41 -2 -83 -6 -63 -10 -77 -26 -81 -15 -4 -19 -14 -19 -44
0 -24 5 -39 12 -39 7 0 -6 -18 -27 -40 -35 -36 -37 -40 -17 -40 19 0 22 -5 22
-40 0 -36 -2 -40 -26 -40 -26 0 -26 -1 -10 -25 18 -27 21 -55 6 -55 -5 0 -10
-7 -10 -16 0 -32 25 -6 41 41 8 27 21 51 27 53 7 2 12 15 12 28 0 13 4 32 9
42 23 44 51 127 51 153 0 15 5 31 10 34 6 3 10 17 10 30 0 13 5 27 10 30 6 3
10 24 10 46 0 21 4 39 8 39 4 0 13 21 21 48 7 26 16 56 21 67 16 39 40 124 40
142 0 11 4 23 9 28 5 6 21 56 35 113 15 56 38 127 52 158 14 30 31 88 39 127
16 86 22 101 52 149 16 27 23 53 23 90 0 29 6 80 14 113 18 80 28 223 18 260
-8 28 -9 29 -19 10z m-386 -1537 c-3 -8 -6 -5 -6 6 -1 11 2 17 5 13 3 -3 4
-12 1 -19z m-20 -30 c-3 -8 -6 -5 -6 6 -1 11 2 17 5 13 3 -3 4 -12 1 -19z"/>
<path d="M11235 16020 c3 -5 8 -10 11 -10 2 0 4 5 4 10 0 6 -5 10 -11 10 -5 0
-7 -4 -4 -10z"/>
<path d="M9920 15985 c0 -9 6 -12 15 -9 8 4 15 7 15 9 0 2 -7 5 -15 9 -9 3
-15 0 -15 -9z"/>
<path d="M7910 15863 c-36 -59 -72 -121 -81 -137 -78 -149 -106 -196 -133
-226 -18 -19 -41 -47 -52 -61 -11 -15 -49 -50 -84 -79 -75 -61 -230 -216 -310
-309 -30 -36 -73 -86 -95 -111 -22 -26 -62 -78 -90 -116 -124 -173 -142 -191
-224 -223 -216 -85 -682 -251 -704 -251 -7 0 -17 -4 -22 -8 -6 -5 -37 -15 -70
-22 -33 -7 -75 -19 -95 -28 -19 -8 -46 -19 -60 -25 -14 -5 -34 -13 -45 -18
-25 -9 -73 -24 -145 -43 -30 -8 -102 -33 -160 -55 -96 -37 -255 -82 -338 -96
-29 -5 -94 -20 -187 -44 -17 -4 -46 -15 -65 -23 -53 -23 -160 -56 -205 -63
-74 -11 -169 -37 -285 -76 -119 -40 -193 -61 -295 -84 -33 -8 -100 -28 -150
-45 -49 -18 -171 -53 -271 -79 -99 -26 -185 -51 -191 -54 -18 -11 -241 -70
-308 -81 -71 -12 -167 -37 -300 -77 -71 -21 -173 -47 -225 -58 -159 -34 -253
-59 -302 -81 -26 -11 -100 -36 -165 -55 -165 -49 -274 -86 -299 -102 -11 -7
-58 -24 -105 -39 -46 -14 -98 -32 -116 -40 -17 -8 -33 -14 -36 -14 -7 0 -243
-112 -340 -161 -43 -21 -86 -39 -96 -39 -9 0 -37 -6 -62 -14 -24 -7 -71 -22
-104 -32 -48 -14 -79 -35 -156 -101 -53 -46 -111 -104 -128 -128 -31 -43 -99
-178 -128 -255 -25 -65 -101 -375 -112 -455 -6 -44 -18 -134 -26 -200 -8 -66
-26 -167 -40 -225 -24 -105 -53 -254 -59 -308 -5 -39 -28 -115 -38 -127 -4 -5
-8 -20 -8 -33 0 -13 -4 -31 -9 -40 -5 -9 -10 -35 -12 -57 -1 -22 -6 -45 -10
-51 -5 -5 -15 -35 -22 -65 -8 -30 -22 -72 -31 -94 -10 -22 -31 -92 -47 -155
-17 -63 -43 -158 -58 -210 -16 -52 -34 -124 -41 -160 -15 -83 -37 -178 -62
-260 -22 -75 -42 -174 -63 -311 -8 -53 -21 -116 -29 -140 -14 -39 -16 -542
-16 -4731 l0 -4688 5001 0 5001 0 -7 33 c-4 17 -13 43 -19 57 -7 14 -18 45
-25 70 -7 25 -19 56 -26 70 -7 14 -16 41 -20 60 -4 19 -11 40 -15 45 -4 6 -10
22 -14 37 -3 14 -9 33 -12 42 -4 11 -1 16 11 16 14 0 16 6 11 31 -3 17 -6 35
-6 40 0 13 -37 11 -43 -1 -3 -6 -4 -5 -3 2 1 7 11 15 22 16 34 7 38 21 11 33
-33 15 -35 39 -4 40 l22 0 -22 11 c-27 13 -29 25 -6 50 14 15 14 18 1 18 -11
0 -15 11 -15 39 0 24 -10 54 -24 77 -15 24 -19 39 -11 42 8 2 8 10 0 30 -6 15
-10 51 -9 79 2 48 0 53 -18 53 -24 0 -28 15 -6 24 8 3 15 16 15 30 0 19 6 25
28 28 25 4 24 5 -15 17 -24 8 -43 17 -43 21 0 4 19 13 43 20 32 11 37 15 20
18 -13 2 -24 12 -26 25 l-4 22 -8 -22 c-4 -14 -15 -23 -27 -23 -16 0 -19 4
-13 23 3 12 9 32 12 44 3 11 14 23 24 26 25 7 24 27 -1 27 -11 0 -20 -5 -20
-11 0 -6 -8 -9 -17 -7 -30 6 -21 33 12 36 33 4 60 22 32 22 -9 0 -17 8 -17 18
-1 16 -1 16 -11 -1 -15 -25 -59 -23 -59 3 0 11 7 23 15 26 11 5 15 21 15 60 0
41 -4 54 -15 54 -12 0 -15 -13 -15 -60 0 -59 -14 -81 -24 -37 -3 12 -3 -9 -1
-48 3 -59 2 -66 -8 -42 -6 15 -14 27 -18 27 -28 0 -9 -156 21 -164 8 -2 1 -4
-17 -5 -17 0 -34 -5 -38 -10 -8 -14 30 -32 49 -25 9 3 16 1 16 -5 0 -6 -10
-11 -22 -11 -13 0 -30 -5 -38 -10 -13 -9 -13 -10 1 -10 11 0 14 -7 11 -29 -5
-36 15 -51 24 -16 8 32 23 24 16 -10 -6 -34 -52 -36 -52 -2 0 12 -7 31 -15 41
-8 11 -15 27 -15 37 0 9 -13 45 -29 80 -23 53 -37 93 -46 139 0 3 -9 19 -18
37 -9 18 -17 39 -17 48 0 8 -8 34 -18 58 -20 46 -19 43 -98 272 -31 88 -69
198 -85 245 -17 47 -50 144 -74 215 -24 72 -58 168 -74 215 -16 47 -39 117
-50 155 -17 58 -69 211 -93 275 -3 8 -13 42 -23 75 -14 53 -24 81 -55 160 -5
11 -16 49 -25 85 -10 35 -46 150 -81 256 -35 105 -64 198 -64 206 0 9 -8 37
-19 64 -18 49 -35 99 -86 269 -15 50 -34 107 -41 128 -8 20 -14 48 -14 62 0
13 -4 27 -10 30 -5 3 -10 17 -10 30 0 13 -7 46 -16 72 -16 46 -31 106 -75 298
-22 95 -23 104 -38 175 -5 25 -16 79 -24 120 -39 187 -89 462 -117 645 -17
110 -35 223 -40 250 -30 162 -111 809 -124 985 -3 41 -10 138 -15 215 -36 480
-61 971 -81 1565 -5 157 -12 339 -14 405 -3 66 -8 233 -11 370 -3 138 -8 293
-10 345 -2 52 -7 205 -11 340 l-7 246 26 17 c15 9 35 17 46 17 11 0 23 5 26
10 5 8 -10 9 -44 4 l-51 -7 -1 39 c0 22 -2 64 -3 94 -7 123 -21 785 -19 925 0
83 4 220 7 305 4 85 6 164 5 175 -1 11 -1 159 0 328 1 184 -3 347 -10 405 -6
53 -13 115 -15 136 -2 22 -8 44 -13 50 -15 19 -24 76 -12 76 6 0 11 7 11 15 0
9 -6 12 -15 9 -12 -5 -15 3 -15 40 0 30 4 46 13 46 9 0 9 2 0 8 -9 6 -12 32
-11 83 1 41 -5 109 -13 151 -10 53 -12 79 -5 81 7 2 6 13 -2 33 -8 16 -16 55
-18 87 -3 32 -9 68 -13 80 -5 12 -5 49 0 82 5 33 6 69 2 80 -13 43 -4 550 14
710 11 111 17 265 19 505 3 391 16 631 44 805 10 66 22 145 25 175 4 30 13 80
21 110 26 103 14 96 -66 -37z m-41 -2760 c0 -25 -1 -26 -9 -8 -12 27 -12 35 0
35 6 0 10 -12 9 -27z m1831 -11882 c0 -5 -3 -16 -6 -25 -5 -13 -8 -13 -20 -1
-20 20 -17 35 6 35 11 0 20 -4 20 -9z m60 -161 c0 -12 -8 -12 -35 0 -18 8 -17
9 8 9 15 1 27 -3 27 -9z m-90 -116 c0 -8 -4 -14 -10 -14 -5 0 -10 9 -10 21 0
11 5 17 10 14 6 -3 10 -13 10 -21z m90 6 c0 -5 -4 -10 -9 -10 -6 0 -13 5 -16
10 -3 6 1 10 9 10 9 0 16 -4 16 -10z m-20 -181 c0 -6 -4 -7 -10 -4 -5 3 -10
11 -10 16 0 6 5 7 10 4 6 -3 10 -11 10 -16z m81 -207 c-9 -15 -10 -15 -11 6 0
12 -4 22 -10 22 -5 0 -10 8 -10 17 0 14 3 13 20 -5 16 -17 18 -26 11 -40z"/>
<path d="M13083 15953 c9 -2 23 -2 30 0 6 3 -1 5 -18 5 -16 0 -22 -2 -12 -5z"/>
<path d="M8945 15940 c3 -5 8 -10 11 -10 2 0 4 5 4 10 0 6 -5 10 -11 10 -5 0
-7 -4 -4 -10z"/>
<path d="M13850 15793 c0 -4 7 -42 16 -83 8 -41 19 -97 24 -125 5 -27 14 -68
20 -90 5 -22 12 -87 15 -145 3 -58 14 -141 25 -185 52 -220 52 -218 56 -935 2
-371 5 -729 6 -795 2 -71 -1 -123 -7 -128 -6 -6 -6 -10 3 -14 8 -3 12 -28 12
-73 0 -45 -4 -70 -12 -74 -10 -5 -10 -7 0 -12 6 -3 12 -17 12 -30 0 -14 -4
-22 -10 -19 -5 3 -10 1 -10 -4 0 -6 5 -11 12 -11 7 0 5 -7 -5 -17 -8 -10 -18
-40 -22 -68 -4 -27 -13 -82 -21 -122 -8 -40 -14 -94 -14 -121 0 -27 -7 -71
-15 -98 -9 -28 -15 -89 -15 -144 0 -64 -6 -117 -19 -162 -20 -71 -48 -396 -36
-426 9 -25 6 -478 -6 -705 -5 -111 -14 -290 -19 -397 -20 -426 -39 -594 -68
-617 -10 -8 -11 -13 -4 -13 7 0 12 -5 12 -11 0 -15 -47 -59 -63 -59 -7 0 -3
-6 7 -12 14 -8 24 -8 37 1 11 6 21 11 25 11 7 0 -2 -212 -16 -380 -5 -63 -12
-151 -15 -195 -3 -44 -7 -96 -10 -115 -3 -19 -9 -82 -14 -140 -5 -58 -19 -186
-30 -285 -11 -99 -27 -243 -36 -320 -8 -77 -22 -189 -30 -250 -8 -60 -20 -150
-26 -200 -6 -49 -19 -139 -29 -200 -11 -60 -24 -157 -30 -215 -10 -94 -28
-231 -75 -583 -19 -141 -72 -414 -96 -497 -11 -36 -24 -83 -30 -105 -6 -22
-18 -60 -25 -85 -33 -111 -64 -265 -74 -375 -7 -66 -25 -185 -42 -265 -39
-188 -40 -194 -78 -330 -17 -63 -36 -137 -42 -165 -5 -27 -21 -90 -34 -140
-30 -110 -38 -141 -60 -225 -9 -36 -24 -94 -34 -130 -57 -212 -72 -269 -80
-305 -4 -22 -16 -67 -25 -100 -9 -33 -25 -91 -35 -130 -33 -123 -47 -177 -95
-340 -25 -88 -55 -191 -66 -230 -11 -38 -24 -79 -29 -90 -5 -11 -14 -42 -20
-69 -11 -51 -32 -121 -81 -266 -16 -47 -33 -110 -40 -140 -6 -30 -15 -59 -19
-65 -7 -9 -29 -94 -70 -270 -5 -22 -17 -76 -26 -120 -17 -84 -40 -140 -29 -73
4 24 2 38 -5 38 -5 0 -10 -8 -10 -17 0 -9 -2 -14 -5 -11 -3 3 -2 19 1 37 5 21
11 30 20 27 10 -4 14 3 14 22 0 15 3 44 6 65 6 36 5 37 -22 37 -27 1 -27 1 -9
12 41 23 46 48 10 48 -29 0 -32 14 -9 37 11 11 14 26 10 48 -6 28 -2 37 24 58
34 29 37 37 15 37 -11 0 -15 11 -15 36 0 35 -18 64 -39 64 -6 0 -11 9 -11 20
0 11 7 20 15 20 8 0 15 5 15 10 0 6 -7 10 -15 10 -8 0 -15 5 -15 10 0 13 17
13 25 0 3 -5 17 -10 31 -10 29 0 33 25 4 33 -12 3 -20 14 -20 26 0 12 -6 21
-15 21 -8 0 -15 7 -15 15 0 20 26 19 34 -2 6 -14 8 -14 21 3 8 10 15 29 15 42
0 16 6 22 22 22 16 0 19 3 11 11 -15 15 -53 2 -47 -16 7 -16 -12 -29 -21 -14
-4 6 -2 16 4 22 6 6 11 21 11 34 0 18 6 23 24 23 27 0 53 24 36 35 -5 3 -10 1
-10 -4 0 -6 -9 -11 -20 -11 -28 0 -70 -21 -70 -35 0 -7 -10 -20 -22 -28 -19
-13 -20 -16 -5 -16 9 -1 17 -7 17 -15 0 -8 -8 -13 -17 -12 -23 1 -30 -34 -9
-49 13 -10 10 -14 -21 -29 -32 -15 -34 -18 -20 -34 17 -20 12 -39 -21 -72 -24
-25 -24 -25 -3 -28 20 -3 21 -8 17 -54 -5 -57 -16 -77 -16 -29 0 19 -4 30 -10
26 -6 -4 -10 -12 -8 -18 3 -18 -13 -81 -23 -88 -5 -3 -12 -40 -15 -82 -4 -42
-11 -77 -15 -77 -5 0 -9 5 -9 11 0 5 -5 7 -11 3 -8 -5 -8 -9 1 -14 9 -6 9 -12
-1 -28 -10 -17 -10 -23 4 -37 20 -19 21 -26 5 -22 -15 3 -36 -65 -37 -118 -1
-23 -10 -58 -21 -80 -23 -44 -27 -115 -7 -115 6 -1 1 -10 -12 -21 -21 -17 -23
-24 -13 -39 8 -14 8 -19 -2 -23 -19 -7 -38 -88 -25 -104 6 -7 7 -18 2 -25 -8
-13 -9 -18 -12 -75 -1 -22 -6 -33 -16 -33 -20 0 -19 -10 3 -26 16 -13 16 -15
0 -28 -22 -16 -23 -26 -3 -26 8 0 15 -4 15 -10 0 -5 -7 -10 -15 -10 -8 0 -15
-9 -15 -20 0 -11 -4 -20 -10 -20 -5 0 -10 -5 -10 -11 0 -6 10 -8 23 -5 12 3
16 3 10 0 -7 -3 -13 -18 -13 -33 0 -15 -3 -31 -7 -35 -4 -3 -8 -12 -9 -19 -5
-28 -44 -107 -54 -107 -14 0 -13 -27 3 -33 8 -4 9 -8 1 -14 -16 -12 -35 -96
-24 -107 16 -16 12 -66 -5 -72 -20 -8 -19 -34 3 -50 14 -11 15 -13 2 -14 -17
0 -45 -64 -35 -80 3 -5 -2 -24 -11 -42 -10 -18 -21 -46 -25 -63 -13 -51 -44
-130 -51 -133 -5 -2 -8 -24 -8 -48 0 -24 -4 -44 -10 -44 -14 0 -12 -27 3 -33
9 -4 8 -8 -3 -16 -13 -10 -13 -12 0 -21 11 -7 12 -12 4 -18 -7 -4 -12 -37 -13
-77 0 -38 -6 -104 -13 -145 -6 -41 -12 -112 -12 -158 -1 -45 -4 -82 -7 -82 -3
0 -4 -11 -2 -24 4 -17 -2 -28 -18 -40 -18 -12 -19 -16 -7 -16 11 0 15 -6 11
-20 -3 -11 1 -27 8 -36 10 -13 10 -17 -2 -25 -10 -6 -10 -9 -1 -9 18 0 15 -38
-5 -49 -14 -8 -15 -13 -5 -19 12 -8 12 -10 -33 -152 -8 -25 -21 -72 -28 -105
-8 -33 -18 -68 -22 -77 -7 -17 246 -18 5234 -18 l5241 0 0 4196 c0 3046 -3
4215 -11 4263 -25 149 -71 379 -84 421 -19 62 -53 251 -60 335 -7 77 -35 213
-65 315 -18 60 -25 99 -51 280 -5 36 -13 83 -19 105 -37 152 -89 408 -116 570
-8 50 -19 104 -24 120 -32 109 -77 320 -86 405 -3 25 -9 63 -14 85 -5 22 -19
103 -31 180 -12 77 -25 145 -29 150 -12 15 -47 450 -52 630 -1 44 -5 90 -9
102 -4 11 -9 63 -10 115 -1 58 -8 112 -20 145 -24 72 -90 166 -140 200 -23 15
-55 40 -73 55 -22 18 -63 34 -131 50 -82 20 -110 32 -155 66 -30 23 -75 50
-100 59 -25 9 -98 40 -163 70 -65 29 -125 53 -133 53 -8 0 -73 25 -144 55 -71
30 -133 55 -138 55 -17 0 -116 31 -142 45 -42 21 -208 76 -263 86 -29 5 -61
12 -72 14 -32 7 -126 41 -175 63 -25 11 -103 34 -175 52 -71 17 -182 47 -245
65 -63 18 -164 41 -225 50 -60 9 -135 23 -165 31 -117 32 -220 56 -345 80
-142 27 -230 48 -375 88 -52 15 -111 28 -130 31 -58 7 -130 23 -230 49 -52 14
-162 42 -245 62 -82 20 -202 53 -266 74 -64 21 -154 46 -200 55 -46 8 -136 34
-199 56 -63 22 -144 47 -180 55 -36 9 -79 19 -96 25 -17 5 -38 9 -46 9 -9 0
-49 14 -89 30 -41 17 -90 35 -109 40 -19 5 -62 16 -95 25 -33 9 -76 20 -95 24
-35 9 -169 54 -225 77 -16 6 -75 19 -130 29 -55 9 -127 24 -160 32 -33 9 -89
21 -125 28 -269 49 -308 63 -395 140 -16 15 -46 39 -65 53 -19 15 -60 50 -90
78 -30 28 -67 62 -81 75 -15 13 -43 38 -62 56 -19 17 -61 52 -93 76 -83 64
-301 280 -430 427 -60 69 -121 137 -136 153 -14 15 -34 45 -44 65 -9 20 -28
55 -42 77 -14 22 -49 85 -77 139 -45 87 -75 127 -75 99z m-1520 -12605 c0 -49
-5 -47 -13 5 -3 20 -2 37 4 37 5 0 9 -19 9 -42z m-10 -83 c0 -8 -4 -15 -9 -15
-13 0 -22 16 -14 24 11 11 23 6 23 -9z m-80 -51 c0 -8 -4 -12 -10 -9 -5 3 -10
10 -10 16 0 5 5 9 10 9 6 0 10 -7 10 -16z m91 -427 c-8 -8 -11 -7 -11 4 0 20
13 34 18 19 3 -7 -1 -17 -7 -23z m-41 -201 c0 -11 -19 -15 -25 -6 -3 5 1 10 9
10 9 0 16 -2 16 -4z m-20 -85 c0 -6 -4 -13 -10 -16 -5 -3 -10 1 -10 9 0 9 5
16 10 16 6 0 10 -4 10 -9z m-326 -642 c-8 -14 -24 -10 -24 6 0 9 6 12 15 9 8
-4 12 -10 9 -15z"/>
<path d="M8380 15643 c0 -5 5 -15 10 -23 8 -12 10 -11 10 8 0 12 -4 22 -10 22
-5 0 -10 -3 -10 -7z"/>
<path d="M8416 15571 c-4 -6 -2 -18 3 -28 11 -20 43 -99 97 -238 19 -49 43
-106 54 -126 11 -20 20 -42 20 -49 0 -19 69 -157 86 -170 8 -7 14 -19 14 -26
0 -18 22 -57 38 -67 6 -4 12 -17 12 -28 0 -11 11 -37 25 -57 14 -20 25 -42 25
-49 0 -7 5 -13 10 -13 16 0 24 30 11 43 -6 6 -11 24 -11 39 0 29 -14 38 -24
16 -3 -7 -3 -2 0 12 3 17 -5 45 -24 82 -16 30 -35 72 -42 92 -6 20 -20 41 -31
46 -10 6 -19 17 -19 24 0 8 -6 19 -14 25 -8 7 -17 29 -21 49 -6 38 -35 82 -53
82 -6 0 -14 20 -17 45 -4 24 -13 50 -21 56 -8 6 -14 19 -14 29 0 10 -7 23 -14
30 -8 6 -22 33 -30 58 -35 112 -49 141 -60 123z"/>
<path d="M12365 15300 c3 -5 13 -10 21 -10 8 0 14 5 14 10 0 6 -9 10 -21 10
-11 0 -17 -4 -14 -10z"/>
<path d="M8820 14690 c0 -11 5 -20 10 -20 6 0 10 9 10 20 0 11 -4 20 -10 20
-5 0 -10 -9 -10 -20z"/>
<path d="M8856 14623 c-12 -12 -6 -33 9 -33 8 0 15 6 15 14 0 17 -14 28 -24
19z"/>
<path d="M8900 14566 c0 -2 8 -10 18 -17 15 -13 16 -12 3 4 -13 16 -21 21 -21
13z"/>
<path d="M13005 14216 c-10 -7 -20 -22 -21 -33 -3 -17 1 -19 24 -15 34 7 56
28 48 47 -7 19 -27 19 -51 1z"/>
<path d="M12960 14179 c0 -5 5 -7 10 -4 6 3 10 8 10 11 0 2 -4 4 -10 4 -5 0
-10 -5 -10 -11z"/>
<path d="M12960 14040 c0 -5 5 -10 11 -10 5 0 7 5 4 10 -3 6 -8 10 -11 10 -2
0 -4 -4 -4 -10z"/>
<path d="M12891 13991 c-12 -8 -12 -12 -2 -25 16 -19 31 -12 31 15 0 21 -7 23
-29 10z"/>
<path d="M12800 13760 c0 -5 5 -10 11 -10 5 0 7 5 4 10 -3 6 -8 10 -11 10 -2
0 -4 -4 -4 -10z"/>
<path d="M7912 13130 c0 -14 2 -19 5 -12 2 6 2 18 0 25 -3 6 -5 1 -5 -13z"/>
<path d="M9452 12241 c-7 -4 -15 -28 -17 -52 -2 -24 -1 -34 2 -21 2 12 9 22
15 22 7 0 6 5 -1 14 -10 12 -8 15 10 18 12 2 24 9 27 16 4 14 -16 16 -36 3z"/>
<path d="M9380 12181 c0 -6 5 -13 10 -16 6 -3 10 1 10 9 0 9 -4 16 -10 16 -5
0 -10 -4 -10 -9z"/>
<path d="M9470 12150 c0 -29 -4 -40 -15 -40 -8 0 -15 -4 -15 -10 0 -14 23 -13
38 2 14 14 16 88 2 88 -5 0 -10 -18 -10 -40z"/>
<path d="M9360 12131 c0 -6 -6 -8 -14 -5 -18 7 -48 -9 -80 -41 -14 -14 -31
-25 -38 -25 -17 -1 -58 -35 -58 -49 0 -7 -15 -25 -33 -40 -18 -16 -39 -41 -47
-56 -12 -23 -12 -28 0 -36 11 -8 10 -9 -7 -4 -16 4 -31 -4 -62 -35 -23 -23
-41 -49 -41 -59 0 -10 -11 -28 -25 -41 -14 -13 -25 -29 -25 -35 0 -6 -16 -27
-36 -46 -20 -18 -48 -54 -62 -79 -25 -42 -68 -104 -112 -160 -11 -14 -20 -31
-20 -37 0 -7 -9 -27 -20 -45 -11 -18 -20 -41 -20 -50 0 -10 -6 -18 -14 -18
-17 0 -30 -27 -27 -55 l3 -20 -16 20 c-11 14 -15 16 -16 6 0 -8 -6 -22 -13
-30 -7 -9 -19 -34 -26 -56 -8 -22 -22 -46 -32 -53 -11 -7 -19 -19 -19 -26 0
-8 -16 -40 -35 -72 -20 -33 -38 -69 -41 -81 -4 -13 -10 -23 -14 -23 -4 0 -10
-10 -14 -23 -3 -13 -22 -44 -43 -71 -28 -36 -37 -56 -36 -84 0 -28 -1 -32 -7
-17 -7 17 -11 13 -29 -28 -11 -27 -21 -52 -21 -56 0 -3 -11 -23 -25 -43 -29
-42 -35 -89 -10 -68 9 7 13 15 11 18 -3 2 5 19 18 36 13 17 29 48 37 68 7 20
22 42 34 48 19 10 46 57 50 85 0 6 6 19 13 30 11 19 11 19 12 -5 l1 -25 10 25
c6 13 15 27 20 31 6 3 18 17 27 31 9 14 36 53 60 88 23 34 42 67 43 73 0 7 20
28 44 47 24 19 44 42 44 51 1 9 7 21 14 27 7 6 24 33 37 61 19 38 30 51 48 51
13 0 22 6 22 16 0 9 9 26 20 38 40 44 90 117 90 131 0 8 7 15 15 15 8 0 20 9
27 20 7 11 18 20 23 20 10 0 30 28 61 82 7 11 22 25 35 32 28 14 38 46 15 46
-9 0 -16 5 -16 10 0 6 7 10 15 10 8 0 19 9 25 20 11 21 40 28 40 9 0 -6 8 -7
23 -3 21 8 41 10 107 13 19 1 30 6 30 16 0 8 6 12 14 9 9 -3 20 3 28 15 7 12
18 21 25 21 7 0 13 11 13 25 0 14 8 29 20 35 14 7 19 20 18 45 -1 40 -24 67
-38 46 -4 -8 -16 -11 -29 -6 -28 9 -27 23 4 31 33 8 32 30 -4 59 -16 15 -28
34 -27 46 1 25 26 39 26 15 0 -9 7 -16 15 -16 8 0 15 5 15 11 0 5 5 7 11 3 8
-5 8 -8 0 -14 -8 -4 0 -19 24 -43 21 -21 39 -37 41 -37 2 0 4 13 4 30 0 26 2
28 23 21 14 -5 22 -17 22 -32 0 -26 26 -50 33 -31 2 7 11 12 20 12 15 1 15 2
0 14 -11 8 -18 27 -18 48 0 33 -3 36 -34 41 -37 6 -89 48 -68 55 14 4 16 32 2
32 -5 0 -10 -7 -10 -15 0 -8 -6 -15 -14 -15 -7 0 -19 -7 -26 -15 -7 -8 -16
-12 -21 -9 -16 10 -9 24 11 24 21 0 27 15 10 25 -5 3 -10 2 -10 -4z m-80 -91
c0 -5 -8 -10 -17 -10 -15 0 -16 2 -3 10 19 12 20 12 20 0z m60 -254 c0 -11
-19 -15 -25 -6 -3 5 1 10 9 10 9 0 16 -2 16 -4z m-320 -41 c0 -8 -4 -15 -10
-15 -5 0 -10 7 -10 15 0 8 5 15 10 15 6 0 10 -7 10 -15z m-46 -30 c3 -8 1 -15
-4 -15 -6 0 -10 7 -10 15 0 8 2 15 4 15 2 0 6 -7 10 -15z m66 -45 c0 -5 -4
-10 -10 -10 -5 0 -10 5 -10 10 0 6 5 10 10 10 6 0 10 -4 10 -10z m-99 -27 c-8
-15 -10 -15 -11 -2 0 17 10 32 18 25 2 -3 -1 -13 -7 -23z m-91 -143 c0 -5 -4
-10 -10 -10 -5 0 -10 5 -10 10 0 6 5 10 10 10 6 0 10 -4 10 -10z m-63 -45 c-9
-19 -13 -21 -15 -9 -3 13 12 33 25 34 0 0 -4 -11 -10 -25z"/>
<path d="M12565 12051 c-3 -6 -20 -15 -38 -20 l-32 -9 33 -1 c17 -1 32 4 32
10 0 7 10 9 27 4 16 -4 26 -5 23 -3 -3 2 -12 9 -22 16 -11 9 -18 10 -23 3z"/>
<path d="M12490 11991 l-25 -7 22 -12 c25 -14 69 -7 76 11 5 14 -36 18 -73 8z"/>
<path d="M12400 11930 c0 -5 5 -10 11 -10 5 0 7 5 4 10 -3 6 -8 10 -11 10 -2
0 -4 -4 -4 -10z"/>
<path d="M12670 11890 c0 -11 5 -20 10 -20 6 0 10 9 10 20 0 11 -4 20 -10 20
-5 0 -10 -9 -10 -20z"/>
<path d="M12720 11827 c0 -9 -5 -16 -12 -14 -6 1 -14 -7 -16 -18 -2 -11 -15
-30 -28 -41 -20 -18 -24 -30 -23 -75 2 -52 2 -52 8 -14 4 27 12 41 24 43 14 3
17 -4 17 -37 0 -30 4 -41 15 -41 11 0 15 -12 15 -49 0 -41 4 -51 20 -56 21 -7
46 -43 36 -52 -10 -10 14 -42 28 -37 28 11 81 11 88 0 4 -6 10 -7 14 -3 12 11
-26 109 -52 138 -13 14 -24 31 -24 39 0 21 -30 98 -63 160 -34 65 -47 81 -47
57z m30 -87 c0 -5 -4 -10 -10 -10 -5 0 -10 5 -10 10 0 6 5 10 10 10 6 0 10 -4
10 -10z m-10 -70 c0 -5 -4 -10 -10 -10 -5 0 -10 5 -10 10 0 6 5 10 10 10 6 0
10 -4 10 -10z m67 -72 c-3 -8 -6 -5 -6 6 -1 11 2 17 5 13 3 -3 4 -12 1 -19z
m-33 -14 c10 -26 7 -34 -14 -34 -11 0 -20 4 -20 9 0 17 12 41 20 41 4 0 11 -7
14 -16z m61 -24 c3 -5 -1 -10 -10 -10 -9 0 -13 5 -10 10 3 6 8 10 10 10 2 0 7
-4 10 -10z m-15 -75 c10 -12 10 -15 -4 -15 -9 0 -16 7 -16 15 0 8 2 15 4 15 2
0 9 -7 16 -15z"/>
<path d="M12680 11605 c0 -8 7 -15 16 -15 14 0 14 3 4 15 -7 8 -14 15 -16 15
-2 0 -4 -7 -4 -15z"/>
<path d="M12858 11363 c7 -3 16 -2 19 1 4 3 -2 6 -13 5 -11 0 -14 -3 -6 -6z"/>
<path d="M13160 10800 c0 -5 9 -19 20 -30 11 -11 20 -15 20 -10 0 6 -9 19 -20
30 -11 11 -20 16 -20 10z"/>
<path d="M13180 10716 c0 -2 7 -19 15 -37 11 -27 14 -29 15 -12 0 28 -10 53
-21 53 -5 0 -9 -2 -9 -4z"/>
<path d="M13273 10591 c1 -18 7 -27 15 -24 14 6 16 23 2 23 -5 0 -7 7 -4 15 4
8 1 15 -5 15 -5 0 -9 -13 -8 -29z"/>
<path d="M13300 10550 c0 -5 5 -10 11 -10 5 0 7 5 4 10 -3 6 -8 10 -11 10 -2
0 -4 -4 -4 -10z"/>
<path d="M8142 10390 c-12 -22 -20 -40 -17 -40 12 0 35 29 35 42 0 8 5 19 12
26 7 7 8 12 3 12 -6 0 -20 -18 -33 -40z"/>
<path d="M12430 3810 c0 -11 4 -20 9 -20 5 0 16 -3 25 -6 25 -10 19 12 -9 30
-24 16 -25 16 -25 -4z"/>
<path d="M12400 3745 c0 -9 5 -15 11 -13 6 2 11 8 11 13 0 5 -5 11 -11 13 -6
2 -11 -4 -11 -13z"/>
<path d="M12385 3686 c-11 -17 -14 -35 -9 -65 4 -22 10 -41 14 -41 13 0 30 51
30 90 0 45 -12 51 -35 16z"/>
<path d="M12320 3560 c0 -5 11 -10 25 -10 14 0 25 5 25 10 0 6 -11 10 -25 10
-14 0 -25 -4 -25 -10z"/>
<path d="M12430 3374 c0 -8 5 -12 10 -9 6 3 10 10 10 16 0 5 -4 9 -10 9 -5 0
-10 -7 -10 -16z"/>
<path d="M12380 3270 c0 -5 5 -10 10 -10 6 0 10 5 10 10 0 6 -4 10 -10 10 -5
0 -10 -4 -10 -10z"/>
<path d="M12402 3178 c6 -18 28 -21 28 -4 0 9 -7 16 -16 16 -9 0 -14 -5 -12
-12z"/>
<path d="M12385 3060 c3 -5 8 -10 11 -10 2 0 4 5 4 10 0 6 -5 10 -11 10 -5 0
-7 -4 -4 -10z"/>
<path d="M12400 3008 c0 -9 -6 -19 -12 -21 -10 -4 -10 -6 0 -6 14 -1 28 26 18
36 -3 4 -6 -1 -6 -9z"/>
<path d="M11992 2260 c0 -14 2 -19 5 -12 2 6 2 18 0 25 -3 6 -5 1 -5 -13z"/>
<path d="M9760 1720 c0 -5 5 -10 10 -10 6 0 10 5 10 10 0 6 -4 10 -10 10 -5 0
-10 -4 -10 -10z"/>
<path d="M11880 1645 c0 -8 5 -15 10 -15 6 0 10 7 10 15 0 8 -4 15 -10 15 -5
0 -10 -7 -10 -15z"/>
<path d="M9680 1540 c0 -5 4 -10 9 -10 6 0 13 5 16 10 3 6 -1 10 -9 10 -9 0
-16 -4 -16 -10z"/>
<path d="M9745 1500 c3 -5 8 -10 11 -10 2 0 4 5 4 10 0 6 -5 10 -11 10 -5 0
-7 -4 -4 -10z"/>
<path d="M9833 1430 c0 -25 2 -35 4 -22 2 12 2 32 0 45 -2 12 -4 2 -4 -23z"/>
<path d="M11826 1463 c5 -5 12 -12 16 -18 4 -6 8 -2 8 8 0 9 -7 17 -17 17 -9
0 -12 -3 -7 -7z"/>
<path d="M11799 1403 c-13 -16 -12 -17 4 -4 16 13 21 21 13 21 -2 0 -10 -8
-17 -17z"/>
<path d="M9818 1283 c7 -3 16 -2 19 1 4 3 -2 6 -13 5 -11 0 -14 -3 -6 -6z"/>
<path d="M9590 1149 c0 -5 5 -7 10 -4 6 3 10 8 10 11 0 2 -4 4 -10 4 -5 0 -10
-5 -10 -11z"/>
<path d="M9840 780 c0 -5 12 -10 26 -10 14 0 23 4 19 10 -3 6 -15 10 -26 10
-10 0 -19 -4 -19 -10z"/>
<path d="M11682 310 c0 -14 2 -19 5 -12 2 6 2 18 0 25 -3 6 -5 1 -5 -13z"/>
</g>
</svg>
